<svg width="254" height="243" viewBox="0 0 254 243" fill="none" xmlns="http://www.w3.org/2000/svg">
<path d="M173.751 19.7576C173.751 26.8274 169.252 32.5587 163.701 32.5587C158.15 32.5587 153.65 26.8274 153.65 19.7576C153.65 12.6877 148.099 1.13779 153.65 1.13779C159.201 1.13779 173.751 12.6877 173.751 19.7576Z" fill="#FFE7C5"/>
<path d="M123.526 19.0506C128.054 27.6581 129.897 43.0724 123.526 44.1961C117.154 45.3198 104.98 31.7274 100.451 23.1198C95.9221 14.5123 94.079 3.42526 100.451 2.30157C106.823 1.17787 118.997 10.4431 123.526 19.0506Z" fill="#FFE7C5"/>
<path d="M79.7817 17.9557C83.2197 25.407 86.217 43.201 79.7817 44.1962C73.3463 45.1914 59.9153 29.011 56.4773 21.5596C53.0393 14.1083 55.4691 7.26107 61.9044 6.26587C68.3397 5.27067 76.3437 10.5044 79.7817 17.9557Z" fill="#FFE7C5"/>
<path d="M52.0484 40.7049C52.0484 45.8466 58.7094 50.0148 52.0484 50.0148C45.3875 50.0148 37.9776 43.0324 31.9472 38.3774C31.9472 33.2357 27.2964 25.5763 33.9573 25.5763C40.6183 25.5763 52.0484 35.5632 52.0484 40.7049Z" fill="#FFE7C5"/>
<path d="M35.9677 82.5994C44.3758 93.0943 59.1025 111.586 50.0386 114.02C40.9746 116.454 22.2641 98.913 13.8561 88.4181C5.44803 77.9232 1.62908 70.6855 10.693 68.2516C19.7569 65.8177 27.5597 72.1045 35.9677 82.5994Z" fill="#FFE7C5"/>
<path d="M106.806 83.7676C113.361 94.6962 122.665 116.246 116.372 117.512C110.08 118.777 90.575 99.2775 84.0194 88.3489C77.4638 77.4203 73.8978 64.081 80.1901 62.8159C86.4824 61.5508 100.25 72.839 106.806 83.7676Z" fill="#FFE7C5"/>
<path d="M170.039 72.9318C173.279 81.7322 170.044 97.0583 164.615 97.7281C159.186 98.3979 153.619 84.1577 150.379 75.3573C147.14 66.5569 144.95 55.3396 150.379 54.6698C155.808 54 166.8 64.1314 170.039 72.9318Z" fill="#FFE7C5"/>
<path d="M228.939 47.6873C228.939 54.1144 223.329 61.6521 218.888 61.6521C214.448 61.6521 212.858 54.1144 212.858 47.6873C212.858 41.2602 220.478 36.0499 224.919 36.0499C229.359 36.0499 228.939 41.2602 228.939 47.6873Z" fill="#FFE7C5"/>
<path d="M220.898 90.7457C220.898 100.386 222.429 110.529 216.878 110.529C211.327 110.529 200.797 100.386 200.797 90.7457C200.797 81.1049 203.287 70.9621 208.838 70.9621C214.389 70.9621 220.898 81.1049 220.898 90.7457Z" fill="#FFE7C5"/>
<path d="M37.3099 133.481C45.8225 144.654 63.5269 160.499 55.401 162.574C47.2751 164.649 23.7111 149.309 15.1985 138.136C6.68592 126.963 3.72009 118.817 11.846 116.742C19.9719 114.667 28.7973 122.308 37.3099 133.481Z" fill="#FFE7C5"/>
<path d="M110.342 147.769C117.569 155.735 122.269 163.432 116.372 165.225C110.475 167.018 101.488 160.39 94.2608 152.424C87.0332 144.458 80.3234 132.106 86.2204 130.313C92.1173 128.519 103.114 139.803 110.342 147.769Z" fill="#FFE7C5"/>
<path d="M156.643 121.003C156.643 126.145 161.083 132.64 156.643 132.64C152.202 132.64 140.562 126.145 140.562 121.003C140.562 115.861 144.514 111.693 146.524 111.693C150.965 111.693 156.643 115.861 156.643 121.003Z" fill="#FFE7C5"/>
<path d="M200.721 139.825C205.577 147.007 203.822 156.376 200.721 157.079C197.619 157.782 189.573 150.296 184.716 143.114C179.86 135.932 185.636 126.361 188.737 125.658C191.838 124.955 195.864 132.643 200.721 139.825Z" fill="#FFE7C5"/>
<path d="M253.06 138.459C253.06 146.171 254.381 154.751 251.05 154.751C247.72 154.751 236.979 146.171 236.979 138.459C236.979 130.746 243.7 124.494 247.03 124.494C250.361 124.494 253.06 130.746 253.06 138.459Z" fill="#FFE7C5"/>
<path d="M248.911 178.172C251.015 186.438 255.501 197.247 248.911 197.809C242.321 198.372 227.152 188.474 225.047 180.208C222.943 171.942 228.379 162.296 234.969 161.734C241.559 161.171 246.807 169.906 248.911 178.172Z" fill="#FFE7C5"/>
<path d="M166.625 164.061C169.669 170.908 179.106 182.884 172.656 183.845C166.205 184.806 151.958 173.812 148.915 166.965C145.871 160.118 142.083 153.385 148.534 152.424C154.985 151.463 163.582 157.214 166.625 164.061Z" fill="#FFE7C5"/>
<path d="M64.1089 193.155C69.2566 198.655 82.7935 203.878 76.1696 205.956C69.5457 208.033 55.186 203.31 50.0383 197.81C44.8906 192.309 40.2578 185.922 46.8817 183.845C53.5057 181.767 58.9611 187.654 64.1089 193.155Z" fill="#FFE7C5"/>
<path d="M130.443 215.266C137.161 221.926 152.276 230.777 146.524 232.722C140.772 234.666 123.09 227.745 116.372 221.084C109.655 214.424 104.59 204.409 110.342 202.464C116.094 200.52 123.726 208.605 130.443 215.266Z" fill="#FFE7C5"/>
<path d="M194.13 206.045C197.987 209.951 201.678 216.636 198.787 217.593C195.895 218.55 184.553 214.516 180.696 210.611C176.839 206.705 179.019 201.663 181.91 200.706C184.802 199.749 190.272 202.139 194.13 206.045Z" fill="#FFE7C5"/>
<path d="M224.919 234.411C225.42 238.256 231.416 241.835 226.929 242.031C222.442 242.227 205.353 238.256 204.852 234.411C204.351 230.565 200.365 225.935 204.852 225.739C209.339 225.543 224.418 230.565 224.919 234.411Z" fill="#FFE7C5"/>
</svg>
