<svg width="286" height="422" viewBox="0 0 286 422" fill="none" xmlns="http://www.w3.org/2000/svg">
<path d="M270.578 69.6426C267.78 82.8692 241.802 96.9164 234.268 95.3229C226.734 93.7294 233.677 75.6559 236.475 62.4294C239.272 49.2029 268.953 40.109 276.487 41.7025C284.021 43.296 273.375 56.4161 270.578 69.6426Z" fill="#CEBBB6"/>
<path d="M198.639 106.552C196.541 116.472 178.795 125.29 171.261 123.696C163.727 122.103 163.856 113.79 171.357 100.781C173.455 90.8615 195.327 85.0012 202.861 86.5947C210.394 88.1882 200.738 96.6321 198.639 106.552Z" fill="#CEBBB6"/>
<path d="M242.748 145.072C239.717 159.4 206.903 177.105 200.624 175.777C194.346 174.449 207.119 156.301 215.465 139.301C218.496 124.972 248.235 119.127 236.867 116.723C243.146 118.051 245.778 130.743 242.748 145.072Z" fill="#CEBBB6"/>
<path d="M139.142 185.708C130.374 204.704 105.17 207.713 101.403 206.916C97.6362 206.119 103.936 194.941 116.407 180.899C119.904 164.366 152.653 159.375 156.419 160.172C160.186 160.969 153.465 174.142 139.142 185.708Z" fill="#CEBBB6"/>
<path d="M235.475 201.914C233.843 209.629 219.344 219.352 213.066 218.024C206.788 216.696 211.108 204.82 212.74 197.105C214.372 189.389 225.754 183.177 232.032 184.505C238.31 185.833 237.107 194.198 235.475 201.914Z" fill="#CEBBB6"/>
<path d="M75.713 216.077C73.8479 224.895 55.0346 232.553 48.7565 231.225C30.5692 227.379 32.6804 217.4 46.1579 209.826C48.023 201.008 61.4442 196.379 67.7223 197.707C79.09 200.111 77.578 207.259 75.713 216.077Z" fill="#CEBBB6"/>
<path d="M160.758 250.384C146.135 263.924 123.052 276.211 116.445 270.563C109.837 264.915 122.206 243.471 136.829 229.931C151.453 216.391 168.23 202.205 174.838 207.853C181.446 213.501 175.381 236.844 160.758 250.384Z" fill="#CEBBB6"/>
<path d="M227.65 285.481C211.26 306.322 182.567 328.992 176.208 324.904C169.849 320.815 185.093 295.508 204.623 270.675C221.012 249.834 232.635 227.759 238.994 231.848C245.352 235.937 244.039 264.641 227.65 285.481Z" fill="#CEBBB6"/>
<path d="M53.4625 304.694C43.3717 312.885 25.9543 319.393 21.5118 315.118C17.0692 310.844 27.2838 297.405 37.3746 289.214C47.4654 281.023 69.975 274.079 74.4176 278.353C78.8601 282.628 63.5533 296.503 53.4625 304.694Z" fill="#CEBBB6"/>
<path d="M106.118 336.84C94.3689 349.703 72.5128 365.549 68.478 362.583C64.4433 359.616 73.9658 336.638 91.5065 326.097C103.255 313.234 112.898 298.974 116.933 301.941C120.968 304.908 120.22 321.401 106.118 336.84Z" fill="#CEBBB6"/>
<path d="M134.399 370.157C124.983 381.838 107.744 396.168 102.485 392.711C97.2257 389.253 99.8854 371.311 115.354 357.637C124.77 345.957 136.715 330.885 141.974 334.343C147.233 337.8 143.815 358.477 134.399 370.157Z" fill="#CEBBB6"/>
<path d="M170.92 382.857C162.797 386.835 157.327 403.798 152.924 401.294C148.522 398.79 148.499 383.241 154.978 373.788C161.458 364.336 172.989 349.755 177.391 352.259C181.793 354.763 179.043 378.878 170.92 382.857Z" fill="#CEBBB6"/>
</svg>
