<svg width="245" height="310" viewBox="0 0 245 310" fill="none" xmlns="http://www.w3.org/2000/svg">
<ellipse cx="115.337" cy="9.81013" rx="9.13117" ry="9.81013" fill="#CEBBB6"/>
<ellipse cx="86.1176" cy="64.7469" rx="9.13117" ry="9.81013" fill="#CEBBB6"/>
<ellipse cx="159.167" cy="76.5189" rx="9.13117" ry="13.7342" fill="#CEBBB6"/>
<ellipse cx="9.41584" cy="111.835" rx="9.13117" ry="13.7342" fill="#CEBBB6"/>
<ellipse cx="91.5963" cy="141.266" rx="14.6099" ry="15.6962" fill="#CEBBB6"/>
<ellipse cx="148.21" cy="125.57" rx="12.7836" ry="7.8481" fill="#CEBBB6"/>
<ellipse cx="215.78" cy="145.19" rx="7.30493" ry="11.7722" fill="#CEBBB6"/>
<ellipse cx="44.1141" cy="180.506" rx="7.30493" ry="7.8481" fill="#CEBBB6"/>
<ellipse cx="20.3732" cy="223.671" rx="9.13117" ry="7.8481" fill="#CEBBB6"/>
<ellipse cx="102.554" cy="217.785" rx="14.6099" ry="13.7342" fill="#CEBBB6"/>
<ellipse cx="137.252" cy="180.506" rx="12.7836" ry="7.8481" fill="#CEBBB6"/>
<ellipse cx="234.043" cy="202.089" rx="10.9574" ry="13.7342" fill="#CEBBB6"/>
<ellipse cx="159.167" cy="202.089" rx="9.13117" ry="13.7342" fill="#CEBBB6"/>
<ellipse cx="129.947" cy="300.19" rx="5.4787" ry="9.81013" fill="#CEBBB6"/>
<ellipse cx="195.692" cy="284.494" rx="12.7836" ry="13.7342" fill="#CEBBB6"/>
</svg>
