<svg width="1155" height="1349" viewBox="0 0 1155 1349" fill="none" xmlns="http://www.w3.org/2000/svg">
<ellipse cx="130.337" cy="9.81013" rx="9.13117" ry="9.81013" fill="#CEBBB6"/>
<ellipse cx="101.118" cy="64.7469" rx="9.13117" ry="9.81013" fill="#CEBBB6"/>
<ellipse cx="174.167" cy="76.5189" rx="9.13117" ry="13.7342" fill="#CEBBB6"/>
<ellipse cx="24.4158" cy="111.835" rx="9.13117" ry="13.7342" fill="#CEBBB6"/>
<ellipse cx="106.596" cy="141.266" rx="14.6099" ry="15.6962" fill="#CEBBB6"/>
<ellipse cx="163.21" cy="125.57" rx="12.7836" ry="7.8481" fill="#CEBBB6"/>
<ellipse cx="230.78" cy="145.19" rx="7.30493" ry="11.7722" fill="#CEBBB6"/>
<ellipse cx="59.1141" cy="180.506" rx="7.30493" ry="7.8481" fill="#CEBBB6"/>
<ellipse cx="35.3732" cy="223.671" rx="9.13117" ry="7.8481" fill="#CEBBB6"/>
<ellipse cx="117.554" cy="217.785" rx="14.6099" ry="13.7342" fill="#CEBBB6"/>
<ellipse cx="152.252" cy="180.506" rx="12.7836" ry="7.8481" fill="#CEBBB6"/>
<ellipse cx="249.043" cy="202.089" rx="10.9574" ry="13.7342" fill="#CEBBB6"/>
<ellipse cx="174.167" cy="202.089" rx="9.13117" ry="13.7342" fill="#CEBBB6"/>
<ellipse cx="144.947" cy="300.19" rx="5.4787" ry="9.81013" fill="#CEBBB6"/>
<ellipse cx="210.692" cy="284.494" rx="12.7836" ry="13.7342" fill="#CEBBB6"/>
<path d="M919.062 243.89C923.995 260.145 933.016 274.769 943.566 287.923C950.233 296.235 959.927 304.753 970.571 301.736C977.784 299.69 982.872 292.558 984.332 285.273C985.793 277.987 984.241 270.577 982.097 263.628C974.367 238.571 958.443 215.868 937.301 200.507C909.548 180.34 914.611 229.225 919.062 243.89Z" fill="#FFE7C5"/>
<path d="M999.586 178.874C1010.42 179.921 1021.84 179.921 1031.92 175.236C1042 170.552 1050.26 160.044 1049.12 149.296C1048.16 140.199 1040.58 132.938 1031.76 130.55C1022.94 128.162 1013.2 130.034 1004.62 133.891C995.419 138.027 969.373 151.529 967.985 162.534C966.273 176.099 990.483 177.994 999.586 178.874Z" fill="#FFE7C5"/>
<path d="M870.88 271.788C872.425 280.1 876.129 289.949 884.641 290.688C889.391 291.1 894.12 288.193 897.055 284.299C899.991 280.404 901.425 275.651 902.507 270.967C908.402 245.417 904.921 218.396 893.563 195.606C889.722 187.898 882.589 173.308 872.119 183.268C863.977 191.013 866.503 211.937 866.45 221.919C866.363 238.701 867.84 255.422 870.88 271.788Z" fill="#FFE7C5"/>
<path d="M848.09 63.0486C854.15 60.9656 860.649 57.7704 863.068 51.856C865.672 45.4871 862.238 38.1431 856.723 34.4245C851.207 30.7046 844.146 29.8871 837.344 29.7961C824.679 29.6258 767.075 35.7514 777.093 57.915C786.033 77.6952 832.004 68.5768 848.09 63.0486Z" fill="#FFE7C5"/>
<path d="M799.4 180.328C802.11 184.452 805.082 188.572 809.285 191.187C813.487 193.803 819.214 194.629 823.656 192.008C827.989 189.453 830.16 184.173 830.164 179.27C830.168 174.365 828.36 169.734 826.403 165.32C821.077 153.306 814.299 141.872 805.725 131.948C801.361 126.894 783.671 106.569 775.558 110.323C762.061 116.572 793.912 171.977 799.4 180.328Z" fill="#CEBBB6"/>
<path d="M904.377 152.916C917.935 155.385 932.615 154.682 945.284 148.402C947.82 147.145 950.41 145.514 951.603 142.96C953.215 139.515 951.663 135.374 948.874 132.997C946.085 130.621 942.338 129.654 938.673 128.979C920.338 125.602 901.254 128.015 883.04 132.875C873.574 135.401 864.14 138.32 876.729 144.239C885.308 148.272 894.971 151.203 904.377 152.916Z" fill="#CEBBB6"/>
<path d="M998.735 198.238C1004.05 218.854 1012.22 238.624 1022.94 256.834C1029.14 267.356 1036.7 277.8 1047.95 282.764C1053.03 285.008 1060.16 285.477 1063.51 280.793C1066.3 276.891 1064.86 271.655 1063.04 267.419C1058.09 255.87 1051.09 245.269 1042.44 236.228C1047.59 238.613 1052.93 241.044 1058.71 241.111C1064.49 241.178 1070.87 238.224 1073.01 232.79C1074.88 228.075 1073.09 222.705 1069.82 219.073C1066.55 215.44 1062.01 213.204 1057.55 211.115C1043.69 204.615 1029.04 198.66 1013.44 198.579" fill="#CEBBB6"/>
<path d="M683.714 94.3496C696.767 83.2905 704.976 67.1101 706.407 50.4858C706.46 49.8816 706.476 49.2757 706.509 48.6718C709.38 62.0397 712.507 75.3965 717.56 88.0387C720.665 95.8072 724.503 103.279 729.363 110.057C729.873 110.768 730.898 110.464 731.152 109.657C733.919 100.803 733.772 91.4422 731.715 82.6758C729.394 72.7799 724.565 63.7524 718.755 55.5911C715.21 50.611 711.284 45.9197 707.236 41.3459C707.091 41.1814 706.916 41.1014 706.733 41.0557C706.568 40.3079 706.398 39.5587 706.231 38.8121C706.14 38.0113 706.052 37.2094 705.926 36.4134C705.881 36.133 705.736 35.9326 705.551 35.7957C705.18 34.1675 704.797 32.5437 704.396 30.923C704.386 30.7738 704.395 30.6229 704.38 30.4747C704.364 30.3355 704.294 30.2347 704.2 30.1662C703.52 27.4641 702.795 24.7778 701.945 22.1371C700.665 18.159 699.03 14.2671 696.734 10.792C695.754 9.31105 694.631 7.93119 693.406 6.64668C695.265 7.64264 697.102 8.68373 698.928 9.74867C698.95 9.78818 698.972 9.82771 699.002 9.85991C699.706 10.6418 700.884 11.1275 701.935 11.5421C711.596 17.4251 720.776 24.1695 729.594 31.2524C730.186 31.8687 730.902 32.4036 731.635 32.893C731.789 33.0195 731.947 33.141 732.101 33.2674C742.543 41.7829 752.725 50.6135 762.907 59.435C764.099 76.0069 768.059 92.3192 773.458 107.808C773.816 108.837 774.205 109.853 774.578 110.876C774.314 110.892 774.043 110.992 773.803 111.231C767.749 117.231 763.347 124.997 759.781 132.589C757.96 136.463 756.321 140.415 754.731 144.378C753.326 147.878 751.764 151.404 750.885 155.06C750.02 158.655 749.965 162.486 752.02 165.567C752.423 166.172 753.212 166.108 753.714 165.625C753.888 165.457 754.054 165.282 754.225 165.115C754.545 165.101 754.858 164.919 754.946 164.502C754.956 164.456 754.968 164.411 754.977 164.365C765.515 153.739 772.879 139.836 775.286 125.329C775.869 121.815 776.181 118.285 776.025 114.768C781.462 128.845 788.314 142.346 796.505 154.941C801.91 163.251 807.913 171.064 814.419 178.525C815.042 179.239 816.156 178.888 816.21 177.881C816.746 167.762 815.107 157.613 811.426 148.355C807.507 138.499 801.3 129.717 793.36 122.75C788.792 118.741 783.667 115.353 778.166 112.686C777.915 112.564 777.679 112.567 777.463 112.624C774.054 103.649 771.208 94.4449 768.958 85.0628C767.032 77.0272 765.586 68.8677 764.332 60.6749C767.081 63.0565 769.829 65.4393 772.584 67.8109C787.122 80.3253 801.661 92.8371 816.199 105.351C820.489 109.044 824.772 112.772 829.058 116.502C831.916 120.944 834.677 125.446 837.095 130.158C839.489 134.822 841.574 139.647 843.405 144.575C842.962 144.651 842.537 144.931 842.361 145.462C836.761 162.357 836.593 181.094 842.254 197.489C843.983 202.499 846.659 207.401 851.511 209.925C852.042 210.202 852.885 209.812 852.964 209.175C853.042 208.527 853.095 207.878 853.166 207.23C854.918 203.846 856.191 200.15 857.14 196.529C858.224 192.388 858.839 188.149 859.011 183.916C859.377 174.949 857.491 166.154 853.814 158.16C852.743 155.833 851.52 153.596 850.123 151.456C849.417 150.376 848.671 149.32 847.888 148.295C847.22 147.422 846.558 146.513 845.76 145.753C844.009 140.954 841.992 136.258 839.695 131.698C837.658 127.655 835.438 123.677 832.952 119.887C840.332 126.3 847.748 132.695 855.304 138.92C855.367 138.995 855.432 139.07 855.494 139.144C855.522 139.437 855.669 139.716 856.019 139.883C856.073 139.909 856.13 139.932 856.184 139.958C857.49 141.524 858.761 143.12 859.953 144.774C862.207 147.901 864.209 151.211 866.009 154.627C869.627 161.498 872.332 168.866 874.346 176.409C878.509 192.001 879.575 208.276 879.888 224.513C880.046 232.75 880.012 240.997 880.133 249.236C880.193 253.381 880.286 257.524 880.45 261.66C880.558 264.355 880.222 269.062 883.299 270.283C886.951 271.732 888.979 266.026 890.11 263.58C891.646 260.262 892.933 256.833 893.97 253.347C896.031 246.413 897.069 239.213 897.045 232.076C896.992 216.68 891.753 201.621 882.435 189.743C881.282 188.276 880.067 186.864 878.804 185.49C878.676 185.352 878.539 185.282 878.399 185.243C877.982 183.1 877.527 180.962 877.007 178.839C873.915 166.213 868.874 153.988 861.135 143.659C861.784 144.179 862.426 144.708 863.077 145.224C865.833 149.128 869.258 152.581 872.732 155.83C876.816 159.647 881.172 163.171 885.619 166.567C894.616 173.433 903.995 179.829 912.625 187.152C917.797 191.54 922.612 196.308 927.02 201.427C925.752 212.413 926.191 223.45 928.319 234.15C929.398 239.577 930.921 244.886 932.878 250.029C934.861 255.233 937.175 260.409 940.285 265.013C943.709 270.085 948.324 274.576 954.347 276.44C954.97 276.633 955.711 276.397 955.865 275.657C957.951 265.517 956.595 255.204 953.749 245.572C951.27 237.183 947.746 229.111 943.489 221.504C945.311 223.185 947.203 224.79 949.16 226.317C956.952 232.392 965.753 237.244 975.158 240.57C980.478 242.452 985.98 243.855 991.599 244.737C992.404 244.863 993.135 243.897 992.635 243.209C992.303 242.75 991.948 242.311 991.607 241.862C991.588 241.801 991.555 241.74 991.487 241.69C991.478 241.683 991.468 241.677 991.46 241.67C979.473 225.99 962.179 215.451 944.311 207.24C939.406 204.986 934.405 202.679 929.263 200.933C929.232 200.34 928.791 199.958 928.293 199.882C925.048 196.15 921.597 192.599 917.93 189.277C909.465 181.61 900.039 175.081 890.851 168.299C882.855 162.398 875.11 156.232 868.139 149.193C879.485 157.958 891.24 166.168 903.729 173.307C927.921 187.137 955.743 196.761 984.439 196.435C984.358 196.636 984.397 196.879 984.645 197.011C990.786 200.272 996.873 203.585 1002.64 207.448C1004.06 208.398 1005.45 209.381 1006.83 210.382C1006.79 210.515 1006.78 210.653 1006.8 210.788C1006.63 211.013 1006.56 211.305 1006.7 211.646C1014.56 230.766 1025.63 248.488 1039.18 263.967C1042.53 267.793 1046.17 271.836 1051.22 273.432C1051.85 273.632 1052.67 273.262 1052.61 272.482C1051.58 258.921 1044.29 246.927 1036.29 236.546C1030.93 229.584 1024.88 223.151 1018.26 217.349C1021.54 219.065 1024.94 220.571 1028.45 221.804C1035.94 224.435 1043.87 226.105 1051.9 226.509C1053.87 226.608 1055.84 226.649 1057.82 226.614C1059.68 226.581 1061.78 226.402 1063.03 224.749C1064.33 223.019 1063.6 221.155 1061.97 220.122C1060.35 219.094 1058.54 218.287 1056.79 217.475C1049.73 214.191 1042.21 211.861 1034.46 210.475C1025.95 208.948 1017.18 208.636 1008.47 209.551C1007.61 208.93 1006.76 208.3 1005.9 207.697C999.589 203.333 992.871 199.341 985.713 196.416C988.385 196.358 991.058 196.245 993.741 196.008C1002.92 195.198 1011.86 193.294 1020.6 190.612C1020.69 190.778 1020.85 190.905 1021.11 190.903C1026.6 190.888 1032.1 190.366 1037.59 190.236C1039.22 190.198 1040.85 190.178 1042.48 190.17C1057.17 197.115 1069.71 211.469 1087.57 210.179C1091.77 209.877 1095.92 208.636 1099.52 206.288C1100.07 205.926 1100.12 205.11 1099.65 204.709C1091.85 198.157 1082.35 193.834 1072.38 191.329C1063.42 189.08 1054.1 188.304 1044.78 188.279C1044.3 188.048 1043.83 187.833 1043.33 187.678C1042.98 187.567 1042.68 187.789 1042.61 188.072C1042.44 188.102 1042.28 188.18 1042.15 188.289C1041.45 188.297 1040.74 188.299 1040.04 188.315C1035.05 188.429 1029.97 188.644 1024.96 189.222C1046.43 181.928 1066.57 169.967 1085.44 157.284C1088.97 154.909 1092.4 152.44 1095.78 149.843C1096.22 149.506 1095.8 148.878 1095.32 149.161C1080.7 157.912 1066.68 167.53 1051.51 175.327C1042.48 179.968 1033.11 184.058 1023.48 187.223C1024.98 185.941 1026.47 184.638 1028.01 183.406C1030.9 181.094 1033.88 178.888 1036.9 176.762C1042.89 172.548 1049.09 168.649 1055.22 164.646C1066.32 157.395 1077.35 149.61 1086.03 139.453C1090.68 134.016 1094.57 127.929 1097.11 121.301C1097.38 120.593 1096.8 119.55 1095.92 119.962C1080 127.492 1065.96 139.098 1055.56 153.351C1052.65 157.351 1050.01 161.546 1047.69 165.895C1047.39 166.447 1047.65 166.917 1048.05 167.15C1044.55 169.431 1041.06 171.72 1037.64 174.102C1034.31 176.412 1031.04 178.802 1027.9 181.374C1025.34 183.481 1022.72 185.65 1020.52 188.159C1015 189.853 1009.4 191.249 1003.72 192.218C979.758 196.314 955.86 192.693 933.77 184.577C939.957 182.836 946.061 180.459 951.999 177.974C958.238 175.365 964.36 172.423 970.234 169.024C972.713 167.59 975.137 166.057 977.508 164.446C977.834 164.572 978.205 164.561 978.497 164.396C983.708 168.356 989.966 171.015 996.357 172.643C1003.15 174.374 1010.37 174.837 1017.45 174.03C1021.52 173.567 1025.55 172.677 1029.46 171.331C1030.14 171.098 1030.51 169.997 1029.84 169.57C1018.15 162.145 1004.39 158.343 990.187 158.947C988.22 159.03 986.254 159.197 984.295 159.452C984.286 159.453 984.278 159.455 984.269 159.456C989.658 155.149 994.611 150.308 998.899 144.878C1006.07 135.796 1011.45 125.168 1013.39 113.9C1013.63 112.5 1013.82 111.094 1013.96 109.686C1014.08 108.315 1014.15 106.868 1013.46 105.657C1012.86 104.598 1011.63 104.08 1010.41 104.429C1009.03 104.82 1008.1 106.091 1007.22 107.138C1002.7 112.548 998.269 118.052 994.198 123.805C986.685 134.417 980.334 146.069 977.618 158.699C977.543 159.051 977.498 159.406 977.431 159.759C977.418 159.781 977.4 159.79 977.388 159.814C977.059 160.516 976.731 161.216 976.402 161.918C976.287 162.018 976.222 162.169 976.211 162.329C976.143 162.472 976.077 162.613 976.01 162.757C975.926 162.937 975.929 163.113 975.969 163.281C974.727 164.126 973.475 164.958 972.197 165.752C961.072 172.666 948.966 177.692 936.714 182.022C935.215 182.551 933.721 183.082 932.239 183.665C932.109 183.716 932.02 183.792 931.946 183.874C925.152 181.292 918.527 178.306 912.14 174.975C895.421 166.26 880.107 155.427 865.431 143.75C867.97 144.653 870.535 145.491 873.098 146.262C878.939 148.017 884.901 149.414 890.944 150.453C902.922 152.512 915.215 153.159 927.478 152.342C934.422 151.879 941.315 150.888 948.141 149.307C948.632 149.193 948.487 148.375 947.99 148.455C947.958 148.46 947.925 148.465 947.89 148.47C947.813 148.285 947.706 148.113 947.516 147.907C947.144 147.498 946.763 147.097 946.365 146.713C945.544 145.918 944.662 145.19 943.755 144.491C941.984 143.124 940.106 141.9 938.131 140.831C936.569 139.984 934.937 139.255 933.278 138.591C933.257 138.519 933.208 138.448 933.131 138.428C932.991 138.391 932.837 138.381 932.692 138.352C930.367 137.461 927.972 136.731 925.525 136.204C921.067 135.245 916.427 134.913 911.818 135.249C906.803 135.614 901.939 136.92 897.171 138.639C891.344 140.741 885.625 143.354 879.544 144.53C878.974 144.641 878.518 145.03 878.411 145.586C877.581 145.36 876.745 145.143 875.918 144.902C870.354 143.284 864.999 141.248 859.665 139.098C847.801 129.39 836.296 119.23 824.748 109.299C823.734 108.427 822.725 107.549 821.711 106.677C822.675 107 823.65 107.293 824.638 107.54C828.546 108.515 832.602 108.856 836.669 108.919C836.948 109.256 837.418 109.406 837.915 109.045C837.97 109.004 838.026 108.966 838.08 108.927C838.933 108.927 839.787 108.921 840.639 108.903C846.003 108.794 851.383 108.538 856.748 108.181C861.94 107.835 867.136 107.353 872.28 106.383C877.962 105.311 883.576 103.728 888.739 100.95C889.059 100.778 888.912 100.349 888.629 100.269C888.625 100.253 888.632 100.236 888.623 100.223C888.268 99.5364 887.576 99.2618 886.854 98.9883C885.999 98.6638 885.135 98.3658 884.257 98.1017C882.539 97.5856 880.792 97.1656 879.015 96.861C875.563 96.2667 872.025 96.0288 868.492 96.1427C861.322 96.3745 854.098 98.0454 847.461 101.046C843.83 102.686 840.206 104.708 837.078 107.228C833.948 107.146 830.831 106.918 827.773 106.335C824.992 105.807 822.28 105.001 819.732 103.829C818.49 103.257 817.275 102.609 816.138 101.856C816.104 101.834 816.076 101.807 816.042 101.785C798.93 87.0112 781.863 72.1768 764.692 57.4658C764.726 57.3096 764.737 57.1473 764.696 56.9786C764.49 56.1302 764.104 55.3554 763.591 54.6697C770.768 56.7957 778.393 56.7942 785.93 56.7411C801.628 56.6294 817.272 57.7054 832.991 57.0842C837.393 56.9095 841.797 56.6015 846.186 56.0876C850.525 55.5803 854.853 54.8969 859.067 53.6116C859.134 53.5904 859.176 53.5449 859.209 53.4951C859.6 53.521 860.026 53.0804 859.718 52.7312C856.104 48.6535 851.371 45.6703 846.374 43.4521C841.327 41.2098 835.877 39.7888 830.324 39.1429C818.489 37.7646 806.381 40.0366 795.163 44.5717C791.913 45.8852 788.738 47.388 785.63 49.0262C784.1 49.8336 782.59 50.6765 781.098 51.5562C779.611 52.431 778.046 53.2662 776.783 54.4503C773.291 54.271 769.825 53.9069 766.43 53.1011C762.321 52.1287 758.421 50.4451 754.899 48.2148C753.116 47.0864 751.429 45.8189 749.86 44.4183C748.844 43.5129 747.898 42.5351 746.934 41.5796C747.212 41.5591 747.446 41.2314 747.174 41.0238C744.773 39.1868 742.128 37.6746 739.537 36.0994C730.86 28.8282 721.849 21.6337 712.373 15.1231C712.922 15.2769 713.467 15.4485 714.02 15.5897C716.665 16.2708 719.344 16.8406 722.054 17.2592C723.907 17.5443 725.886 17.8776 727.834 17.9401C727.986 18.164 728.236 18.3244 728.591 18.3216C728.965 18.3173 729.338 18.3334 729.713 18.3367C732.051 20.0591 734.508 21.6383 736.965 23.1687C740.592 25.4296 744.32 27.5567 748.153 29.4795C755.883 33.359 763.967 36.5636 772.296 39.0844C777.001 40.5092 781.791 41.6827 786.635 42.6368C787.428 42.793 788.071 41.6403 787.383 41.1517C773.61 31.3652 759.307 21.3693 742.276 17.7583C744.585 17.7619 746.895 17.7092 749.208 17.5758C757.571 17.0955 765.908 15.6495 774.058 13.4343C782.985 11.0077 791.687 7.74706 800.319 4.3524C809.973 0.555112 819.611 -3.41349 829.483 -6.54646C829.504 -6.49929 829.538 -6.46307 829.558 -6.41469C829.825 -5.76611 830.845 -6.10854 830.634 -6.7956C830.05 -8.69411 828.392 -9.7872 826.593 -10.4417C824.862 -11.0726 823.018 -11.4881 821.203 -11.8535C817.471 -12.6032 813.633 -12.9191 809.793 -12.9132C802.024 -12.9043 794.2 -11.5293 786.688 -9.23691C778.105 -6.61724 769.875 -2.87937 761.851 1.21187C754.121 5.15263 746.6 9.87523 738.344 12.5653C734.114 13.9421 729.577 14.6287 725.195 14.3118C723.272 14.008 721.36 13.6496 719.455 13.2518C717.684 12.7025 715.977 11.9547 714.375 10.9579C713.832 10.6197 713.289 11.4769 713.701 11.8962C709.853 10.8872 706.064 9.69618 702.358 8.30638C702.145 8.22595 701.946 8.2321 701.759 8.27083C689.059 0.637833 675.489 -5.45809 660.717 -8.61881C657.023 -9.40905 653.297 -9.96732 649.515 -10.3102C648.004 -10.4472 647.471 -8.15049 649.006 -7.96616C663.065 -6.27771 676.071 -1.93962 688.283 4.03274C690.954 6.02719 693.298 8.57587 695.139 11.3128C697.243 14.4404 698.766 17.9141 699.97 21.5026C701.179 25.1015 702.152 28.7972 703.021 32.5265C702.718 33.9168 702.395 35.3025 701.921 36.6605C701.232 38.6332 700.337 40.5514 699.365 42.4134C697.35 46.2701 694.921 49.9048 692.762 53.6855C688.311 61.4768 685.208 69.9747 683.575 78.677C682.644 83.636 682.196 88.6635 682.225 93.6633C682.237 94.327 683.143 94.8347 683.714 94.3496ZM778.527 115.398C778.644 115.456 778.754 115.524 778.871 115.584C791.035 129.262 801.442 144.386 808.986 161.177C810.32 164.146 811.517 167.165 812.656 170.212C812.433 169.843 812.209 169.474 811.996 169.105C810.882 167.168 809.76 165.235 808.634 163.304C806.325 159.345 803.978 155.412 801.63 151.478C796.934 143.607 792.11 135.816 787.082 128.159C784.375 124.037 781.653 119.927 778.748 115.947C778.679 115.763 778.6 115.581 778.527 115.398ZM752.996 155.551C753.808 152.132 755.266 148.851 756.582 145.582C759.616 138.042 762.882 130.522 767.18 123.549C769.391 119.963 771.946 116.678 774.715 113.505C774.677 113.964 774.63 114.42 774.589 114.878C766.458 126.186 760.354 138.968 756.381 152.125C755.333 155.597 754.402 159.128 753.72 162.681C753.549 162.853 753.386 163.032 753.213 163.204C752.184 160.843 752.386 158.123 752.996 155.551ZM755.845 160.434C757.143 154.715 758.662 149.064 760.707 143.505C763.196 136.741 766.28 130.189 769.825 123.868C770.823 122.091 771.884 120.344 772.983 118.619C772.491 119.542 772.016 120.474 771.552 121.419C770.307 123.95 769.141 126.515 768.054 129.11C765.918 134.21 764.105 139.433 762.622 144.732C761.769 147.779 761.028 150.849 760.393 153.939C760.33 154.238 760.442 154.457 760.617 154.605C760.615 154.607 760.615 154.61 760.612 154.612C759.133 156.639 757.533 158.577 755.845 160.434ZM770.868 134.618C768.846 140.783 765.945 146.737 762.303 152.189C764.431 142.192 767.681 132.377 772.031 123.023C772.73 121.519 773.477 120.039 774.207 118.552C773.568 123.971 772.6 129.333 770.868 134.618ZM779.972 118.932C784.134 125.648 788.429 132.283 792.611 138.986C797.404 146.665 802.074 154.42 806.56 162.29C807.834 164.525 809.096 166.768 810.345 169.017C810.944 170.093 811.538 171.17 812.13 172.249C812.35 172.649 812.564 173.057 812.778 173.464C802.811 161.391 794.149 148.15 787.008 134.201C784.457 129.213 782.123 124.113 779.972 118.932ZM801.36 134.489C807.278 142.397 811.295 151.63 813.192 161.431C813.718 164.154 814.035 166.917 814.203 169.698C811.566 162.818 808.391 156.124 804.897 149.698C800.444 141.508 795.309 133.686 789.486 126.425C786.789 123.063 783.959 119.819 780.969 116.722C788.924 121.178 795.915 127.216 801.36 134.489ZM844.133 147.684C845.96 163.089 848.003 178.451 849.438 193.917C849.646 196.158 849.833 198.404 850.018 200.648C850.1 201.624 850.205 202.608 850.297 203.593C849.187 200.653 848.352 197.572 847.56 194.543C846.551 190.681 845.721 186.765 845.052 182.817C843.715 174.916 843.169 166.892 843.35 158.814C843.429 155.276 843.689 151.743 843.976 148.21C844.031 148.035 844.08 147.859 844.133 147.684ZM844.365 197.064C842.999 193.128 842.063 188.992 841.43 184.85C840.17 176.607 840.115 168.1 841.376 159.739C841.744 157.295 842.242 154.869 842.829 152.462C842.381 158.1 842.41 163.779 842.735 169.354C843.208 177.47 844.287 185.512 846.167 193.362C847.211 197.721 848.67 201.931 849.849 206.243C847.198 203.847 845.537 200.444 844.365 197.064ZM851.438 204.111C851.335 203.034 851.256 201.953 851.142 200.889C850.935 198.929 850.722 196.969 850.507 195.011C850.074 191.094 849.652 187.175 849.231 183.258C848.383 175.367 847.468 167.488 846.48 159.62C846.049 156.186 845.579 152.757 845.08 149.335C849.057 161.314 851.378 173.888 851.891 186.642C852.126 192.45 851.956 198.287 851.438 204.111ZM848.262 151.64C849.515 153.433 850.636 155.308 851.684 157.232C853.795 161.102 855.341 165.309 856.365 169.63C858.292 177.76 858.235 186.374 856.294 194.671C855.618 197.561 854.656 200.318 853.562 203.041C854.437 191.706 853.924 180.352 852.01 169.261C850.906 162.867 849.358 156.586 847.38 150.459C847.674 150.854 847.98 151.237 848.262 151.64ZM882.956 266.593C882.467 264.934 882.588 263.048 882.524 261.317C882.378 257.39 882.298 253.461 882.247 249.527C882.144 241.501 882.139 233.468 881.98 225.446C881.737 213.189 881.084 200.905 879.05 188.89C879.196 189.061 879.335 189.241 879.479 189.414C880.722 193.817 881.98 198.189 882.919 202.691C883.992 207.833 884.879 213.028 885.555 218.254C886.886 228.55 887.414 239.013 887.068 249.464C886.871 255.44 886.398 261.42 885.62 267.375C885.602 267.511 885.618 267.631 885.655 267.737C885.64 267.755 885.629 267.773 885.614 267.789C884.315 269.245 883.333 267.876 882.956 266.593ZM890.234 258.21C889.613 259.83 888.934 261.429 888.199 263.005C887.972 263.491 887.73 263.968 887.494 264.448C888.465 254.901 888.818 245.331 888.405 235.803C887.949 225.244 886.585 214.741 884.303 204.5C883.668 201.657 882.951 198.833 882.21 196.02C881.782 194.397 881.357 192.774 880.899 191.161C886.16 197.916 890.092 205.709 892.452 214.009C892.141 216.302 892.028 218.635 891.888 220.918C891.702 223.962 891.602 227.009 891.581 230.052C891.538 236.228 891.768 242.437 892.401 248.553C892.44 248.932 892.727 249.109 893.028 249.127C892.293 252.202 891.371 255.243 890.234 258.21ZM893.574 246.498C893.06 241.056 892.739 235.608 892.755 230.108C892.764 227.066 892.855 224.021 893.027 220.977C893.095 219.761 893.2 218.543 893.302 217.326C894.064 220.634 894.584 224.007 894.835 227.418C895.301 233.761 894.841 240.186 893.574 246.498ZM935.443 250.608C931.599 240.711 929.304 230.158 928.696 219.433C928.415 214.483 928.523 209.502 928.965 204.532C931.28 223.627 936.768 242.192 944.892 259.384C946.043 261.82 947.244 264.231 948.496 266.613C949.654 268.813 950.742 271.17 952.126 273.252C943.536 269.041 938.746 259.113 935.443 250.608ZM953.962 274.043C953.978 274.027 953.987 274.006 954.002 273.989C953.999 274.011 953.995 274.033 953.991 274.055C953.982 274.051 953.972 274.046 953.962 274.043ZM954.404 271.508C954.333 272.11 954.219 272.709 954.113 273.306C954.108 273.291 954.111 273.28 954.104 273.267C953.041 271.017 951.594 268.952 950.395 266.774C949.227 264.654 948.109 262.505 947.031 260.334C944.858 255.957 942.869 251.485 941.059 246.935C937.428 237.807 934.556 228.374 932.386 218.74C931.411 214.408 930.59 210.031 929.903 205.629C930.313 206.239 930.719 206.853 931.144 207.452C931.707 210.093 932.487 212.698 933.276 215.249C934.41 218.924 935.688 222.552 937.132 226.105C940.023 233.223 943.5 240.074 947.494 246.605C949.514 249.907 951.694 253.102 953.983 256.217C954.784 261.248 955.022 266.373 954.404 271.508ZM950.325 242.007C951.541 245.532 952.591 249.158 953.366 252.85C945.449 241.71 939.226 229.393 934.881 216.337C934.177 214.221 933.573 212.071 932.964 209.922C934.34 211.725 935.787 213.477 937.294 215.171C942.671 223.536 947.063 232.559 950.325 242.007ZM964.295 233.677C962.546 232.766 960.837 231.784 959.155 230.763C959.482 230.853 959.808 230.942 960.129 231.041C961.687 231.517 963.234 232.024 964.771 232.556C967.73 233.582 970.646 234.72 973.515 235.953C977.261 237.562 980.921 239.351 984.508 241.267C977.468 239.541 970.676 236.998 964.295 233.677ZM989.452 242.35C988.757 242.221 988.068 242.068 987.377 241.923C982.999 239.365 978.471 237.061 973.8 235.034C970.937 233.791 968.024 232.65 965.08 231.593C963.608 231.065 962.125 230.562 960.633 230.084C959.168 229.616 957.665 229.032 956.14 228.768C956.097 228.761 956.059 228.768 956.02 228.772C951.499 225.766 947.252 222.368 943.354 218.61C956.485 222.802 969.025 228.484 980.696 235.622C983.011 237.037 985.286 238.511 987.549 240.006C988.194 240.778 988.834 241.555 989.452 242.35ZM953.738 220.996C949.883 219.468 945.97 218.086 942.003 216.848C941.848 216.8 941.712 216.813 941.589 216.847C941.403 216.656 941.209 216.475 941.025 216.283C940.327 215.557 939.656 214.807 938.984 214.058C936.898 210.852 934.659 207.747 932.296 204.744C944.59 212.595 957.397 219.773 970.399 226.455C972.861 227.72 975.34 228.949 977.829 230.163C978.444 230.696 979.063 231.223 979.664 231.771C981.543 233.482 983.338 235.281 985.051 237.15C975.295 230.648 964.675 225.336 953.738 220.996ZM955.055 214.732C962.121 218.566 968.924 222.895 975.155 227.927C964.076 222.319 953.208 216.34 942.674 209.815C940.342 208.371 938.029 206.899 935.72 205.421C937.673 206.274 939.628 207.126 941.553 208.022C946.114 210.146 950.64 212.337 955.055 214.732ZM1031.98 251.996C1025.95 243.905 1020.57 235.325 1015.9 226.36C1013.58 221.91 1011.45 217.358 1009.46 212.738C1009.58 212.736 1009.69 212.733 1009.8 212.73C1009.67 212.763 1009.55 212.878 1009.62 213.015C1013.48 221.639 1018.14 229.844 1023.19 237.803C1028.21 245.73 1033.77 253.311 1039.77 260.516C1041.42 262.488 1043.09 264.434 1044.79 266.351C1045.66 267.329 1046.54 268.301 1047.43 269.265C1047.5 269.337 1047.57 269.414 1047.63 269.487C1045.28 267.88 1043.27 265.778 1041.38 263.628C1038.1 259.879 1034.96 255.995 1031.98 251.996ZM1050.41 270.37C1049.92 269.767 1049.35 269.225 1048.82 268.66C1047.99 267.79 1047.18 266.912 1046.36 266.028C1044.78 264.304 1043.23 262.552 1041.7 260.776C1038.68 257.259 1035.77 253.643 1032.98 249.942C1027.36 242.501 1022.16 234.731 1017.51 226.626C1014.91 222.088 1012.43 217.461 1010.03 212.806C1010 212.759 1009.96 212.74 1009.92 212.728C1009.93 212.727 1009.93 212.729 1009.94 212.728C1011.18 213.678 1012.4 214.648 1013.6 215.641C1014.43 217.431 1015.46 219.136 1016.43 220.847C1017.44 222.635 1018.48 224.409 1019.54 226.17C1021.68 229.742 1023.9 233.264 1026.21 236.723C1030.84 243.64 1035.77 250.345 1041 256.809C1042.43 258.575 1043.88 260.328 1045.35 262.062C1046.1 262.95 1046.86 263.833 1047.62 264.713C1048.31 265.509 1048.97 266.416 1049.83 267.045C1050.06 268.141 1050.26 269.249 1050.41 270.37ZM1044.06 251.881C1046.14 255.731 1047.89 259.8 1049.09 264.04C1048.37 263.224 1047.65 262.403 1046.93 261.578C1045.62 260.069 1044.33 258.547 1043.06 257.006C1040.45 253.84 1037.91 250.615 1035.45 247.334C1030.52 240.775 1025.88 233.988 1021.53 227.025C1020.29 225.05 1019.08 223.058 1017.9 221.051C1017.23 219.915 1016.59 218.751 1015.93 217.601C1016.91 218.447 1017.88 219.304 1018.83 220.18C1028.74 229.304 1037.61 239.997 1044.06 251.881ZM1061.14 224.069C1060.35 224.666 1059.25 224.678 1058.32 224.696C1056.41 224.736 1054.5 224.682 1052.61 224.569C1045.11 224.129 1037.72 222.802 1030.66 220.473C1026.73 219.172 1022.88 217.621 1019.18 215.782C1017.97 215.178 1016.77 214.54 1015.59 213.886C1020.83 215.119 1026.05 216.4 1031.3 217.607C1037.62 219.064 1043.98 220.427 1050.35 221.696C1053.99 222.421 1057.64 223.236 1061.34 223.688C1061.43 223.699 1061.51 223.671 1061.57 223.629C1061.46 223.784 1061.32 223.934 1061.14 224.069ZM1061.61 223.592L1061.61 223.591L1061.61 223.592ZM1061.7 223.37C1061.7 223.239 1061.64 223.108 1061.47 223.066C1058.3 222.287 1055.05 221.758 1051.84 221.116C1048.62 220.474 1045.42 219.808 1042.22 219.119C1035.86 217.751 1029.54 216.287 1023.26 214.673C1020.77 214.033 1018.27 213.389 1015.78 212.712C1027.46 212.945 1039 214.718 1050 218.296C1053.79 219.528 1057.52 220.935 1061.15 222.513C1061.38 222.611 1061.55 222.428 1061.57 222.239C1061.83 222.605 1061.86 222.996 1061.7 223.37ZM1051.4 217.174C1053.11 217.848 1054.8 218.575 1056.46 219.354C1057.29 219.742 1058.11 220.146 1058.93 220.563C1059.7 220.954 1060.59 221.324 1061.25 221.886C1048.4 215.922 1034.22 212.416 1019.86 211.513C1017.22 211.346 1014.56 211.297 1011.91 211.308C1025.45 210.341 1039.01 212.29 1051.4 217.174ZM1096.88 205.147C1093.66 204.717 1090.42 204.417 1087.22 203.878C1083.46 203.246 1079.72 202.463 1076.05 201.471C1068.7 199.482 1061.4 196.954 1054.61 193.606C1052.95 192.788 1051.33 191.911 1049.71 191.035C1051.33 191.503 1052.96 191.968 1054.58 192.431C1058.16 193.454 1061.74 194.474 1065.32 195.508C1072.43 197.56 1079.53 199.621 1086.62 201.696C1089.65 202.578 1092.67 203.459 1095.71 204.283C1096.1 204.571 1096.5 204.849 1096.88 205.147ZM1077.29 207.137C1069.22 204.906 1062.32 200.023 1055.52 195.468C1055.3 195.322 1055.08 195.184 1054.86 195.039C1057.69 196.298 1060.55 197.507 1063.46 198.576C1070.61 201.194 1078.04 203.138 1085.59 204.442C1089.15 205.057 1092.81 205.637 1096.46 205.803C1090.5 208.846 1083.49 208.849 1077.29 207.137ZM1053.9 190.499C1064.26 191.246 1074.56 193.294 1083.96 197.44C1087.46 198.985 1090.8 200.838 1093.94 202.986C1088.56 201.305 1083.12 199.797 1077.73 198.2C1070.63 196.1 1063.55 193.96 1056.47 191.82C1054.87 191.337 1053.28 190.855 1051.68 190.373C1052.42 190.413 1053.16 190.445 1053.9 190.499ZM1072.17 150.202C1065.15 155.97 1057.57 160.933 1049.98 165.878C1050.21 165.456 1050.45 165.043 1050.69 164.625C1051.94 163.826 1053.15 162.903 1054.35 162.055C1056 160.888 1057.64 159.71 1059.28 158.528C1062.5 156.198 1065.61 153.694 1068.68 151.167C1074.85 146.093 1080.62 140.624 1086.14 134.86C1087.56 133.371 1088.97 131.856 1090.35 130.322C1085.56 137.902 1079.13 144.478 1072.17 150.202ZM1094.27 123.013C1094.18 123.227 1094.07 123.436 1093.98 123.648C1093.94 123.679 1093.91 123.695 1093.87 123.732C1083.81 136.005 1072.52 147.277 1059.87 156.922C1058.12 158.253 1056.38 159.586 1054.58 160.841C1054.18 161.123 1053.76 161.398 1053.35 161.671C1063.35 150.798 1073.93 140.462 1085.09 130.757C1086.86 129.216 1088.65 127.691 1090.45 126.179C1091.68 125.142 1093.07 124.144 1094.27 123.013ZM1083.79 129.011C1085.83 127.652 1087.93 126.382 1090.07 125.179C1088.52 126.471 1086.98 127.775 1085.45 129.09C1082.34 131.763 1079.27 134.482 1076.25 137.245C1070.09 142.866 1064.07 148.644 1058.25 154.61C1056.9 155.993 1055.56 157.386 1054.22 158.782C1061.9 147.023 1072.05 136.812 1083.79 129.011ZM988.574 167.799C985.967 166.692 983.477 165.369 981.056 163.932C992.536 166.624 1004.21 168.636 1016 169.88C1018.83 170.178 1021.66 170.406 1024.5 170.601C1012.43 173.495 999.72 172.534 988.574 167.799ZM984.256 163.631C995.153 163.536 1005.95 164.697 1016.39 167.496C1019.09 168.219 1021.74 169.07 1024.39 169.936C1012.11 168.825 999.928 167.111 987.944 164.478C986.712 164.207 985.484 163.917 984.256 163.631ZM988.798 161.125C992.194 160.891 995.595 160.917 998.962 161.206C1005.7 161.783 1012.31 163.355 1018.48 165.904C1021.32 167.076 1024.06 168.451 1026.68 170.039C1026.66 170.042 1026.65 170.044 1026.64 170.047C1020.8 167.65 1014.54 166.023 1008.31 164.781C1001.71 163.463 994.993 162.481 988.21 162.196C985.729 162.092 983.238 162.108 980.746 162.174C981.733 162.012 982.72 161.815 983.711 161.671C985.404 161.424 987.1 161.243 988.798 161.125ZM994.752 146.906C995.714 144.438 996.64 141.96 997.702 139.525C999.005 136.541 1000.42 133.601 1001.95 130.717C1004.62 125.687 1007.69 120.893 1010.91 116.181C1008.84 125.597 1004.38 134.514 998.495 142.314C997.303 143.895 996.05 145.424 994.752 146.906ZM1011.6 112.476C1011.5 113.156 1011.35 113.827 1011.22 114.502C1007.4 119.412 1004.11 124.732 1001.2 130.194C999.638 133.122 998.191 136.108 996.867 139.141C995.575 142.1 994.301 145.113 993.381 148.194C993.357 148.277 993.368 148.346 993.393 148.412C991.94 149.994 990.433 151.518 988.873 152.989C989.154 152.275 989.41 151.548 989.692 150.894C990.394 149.275 991.112 147.663 991.846 146.055C993.314 142.843 994.845 139.657 996.44 136.501C999.633 130.181 1002.99 123.968 1006.68 117.904C1008.42 115.057 1010.23 112.253 1011.96 109.412C1011.89 110.437 1011.75 111.467 1011.6 112.476ZM1012.01 108.069C1007.96 113.532 1004.51 119.492 1001.18 125.376C997.682 131.551 994.359 137.777 991.356 144.191C990.514 145.991 989.69 147.798 988.889 149.614C988.488 150.521 988.091 151.432 987.7 152.345C987.345 153.175 986.908 154.016 986.775 154.907C984.754 156.699 982.663 158.418 980.501 160.046C980.223 160.108 979.945 160.173 979.671 160.248C983.366 153.087 986.991 145.904 990.989 138.89C994.996 131.861 999.33 124.988 1003.8 118.231C1006.35 114.388 1008.98 110.605 1011.46 106.72C1011.52 106.631 1011.49 106.551 1011.43 106.49C1011.81 106.767 1011.97 107.467 1012.01 108.069ZM1004.35 113.869C1005.38 112.582 1006.43 111.301 1007.47 110.022C1008.01 109.361 1008.55 108.7 1009.09 108.039C1009.5 107.544 1009.9 106.983 1010.43 106.61C1010.81 106.342 1011.1 106.318 1011.32 106.421C1011.24 106.395 1011.15 106.397 1011.09 106.479C1006.07 112.817 1001.7 119.693 997.402 126.515C993.055 133.421 988.858 140.438 984.885 147.551C983.541 149.956 982.212 152.379 980.912 154.812C983.365 146.103 987.465 137.818 992.418 130.123C996.055 124.479 1000.13 119.113 1004.35 113.869ZM911.469 150.778C906.234 150.534 901.028 150.007 895.87 149.233C898.798 149.354 901.73 149.352 904.616 149.305C913.039 149.167 921.473 148.676 929.897 148.365C934.876 148.182 939.856 147.962 944.837 147.758C944.973 147.753 945.037 147.668 945.07 147.574C945.538 147.939 946.003 148.307 946.465 148.68C934.844 150.463 923.114 151.322 911.469 150.778ZM942.036 145.308C942.906 145.904 943.741 146.545 944.572 147.188C935.961 147.382 927.346 147.628 918.736 147.796C910.766 147.95 902.749 148.367 894.817 147.849C892.873 147.723 890.956 147.504 889.052 147.23C900.162 146.268 910.967 142.188 921.988 140.21C923.876 139.872 925.771 139.592 927.674 139.403C928.251 139.345 928.841 139.311 929.435 139.278C931.543 139.916 933.601 140.702 935.586 141.633C937.83 142.685 939.999 143.913 942.036 145.308ZM909.573 137.74C915.266 136.941 921.029 137.235 926.522 138.51C925.446 138.629 924.37 138.767 923.298 138.933C920.033 139.443 916.794 140.149 913.572 140.918C907.007 142.483 900.451 144.23 893.782 145.165C890.643 145.605 887.486 145.845 884.342 145.779C892.803 143.265 900.792 138.974 909.573 137.74ZM858.948 106.637C853.835 106.974 848.714 107.108 843.602 107.224C842.896 107.24 842.189 107.244 841.483 107.25C841.976 107.143 842.47 107.053 842.962 106.94C854.248 106.561 865.605 105.356 876.779 103.387C879.017 102.992 881.25 102.553 883.478 102.085C880.317 103.172 877.104 104.086 873.847 104.746C868.923 105.743 863.928 106.307 858.948 106.637ZM856.82 99.6972C863.628 97.8812 870.781 97.4177 877.639 98.372C879.507 98.6308 881.362 98.9891 883.183 99.4408C884.093 99.6665 884.997 99.9151 885.895 100.179C886.438 100.339 886.976 100.534 887.525 100.597C887.393 100.649 887.259 100.695 887.125 100.748C887.064 100.677 886.982 100.628 886.868 100.65C874.61 103.081 862.366 104.895 849.957 105.539C849.761 105.55 849.566 105.553 849.369 105.562C852.034 105.058 854.705 104.598 857.38 104.174C863.348 103.227 869.337 102.443 875.335 101.819C878.769 101.462 882.206 101.142 885.643 100.853C885.989 100.825 885.965 100.304 885.621 100.324C873.433 100.984 861.299 102.633 849.219 104.728C847.136 105.089 845.021 105.406 842.924 105.788C842.84 105.79 842.757 105.79 842.674 105.794C844.028 104.941 845.41 104.139 846.858 103.426C850.053 101.858 853.398 100.611 856.82 99.6972ZM857.768 52.4686C847.922 50.0772 837.799 48.7991 827.583 48.4452C817.24 48.0867 806.763 48.8277 796.474 50.6445C793.88 51.1021 791.297 51.6411 788.725 52.232C795.732 49.2311 803.101 47.1526 810.579 46.0681C820.896 44.572 831.499 44.822 841.523 47.0242C847.06 48.2401 852.268 50.1577 857.474 52.2433C857.574 52.3159 857.67 52.3922 857.768 52.4686ZM855.134 52.6204C853.352 52.5362 851.545 52.5957 849.767 52.5847C847.272 52.5712 844.776 52.5704 842.282 52.5748C837.289 52.5848 832.298 52.6191 827.304 52.6803C817.366 52.7999 807.439 52.8212 797.498 53.092C795.11 53.1565 792.72 53.2466 790.332 53.3201C796.873 51.8187 803.497 50.7534 810.135 50.1044C820.414 49.099 830.776 49.1544 840.939 50.3036C845.714 50.844 850.451 51.6315 855.134 52.6204ZM835.937 55.3731C828.238 55.6751 820.555 55.5008 812.883 55.2706C806.826 55.0886 800.77 54.8758 794.708 54.7424C809.898 54.0067 825.092 53.4533 840.269 53.2943C842.991 53.2658 845.711 53.2501 848.435 53.2294C851.246 53.2077 854.122 53.3762 856.931 53.0671C856.965 53.0636 856.99 53.0442 857.012 53.0247C857.253 53.0782 857.494 53.1292 857.735 53.1802C850.466 54.1154 843.247 55.0875 835.937 55.3731ZM858.182 53.1253C858.25 53.0541 858.279 52.9632 858.278 52.863C858.371 52.9353 858.463 53.005 858.555 53.0773C858.431 53.092 858.307 53.1081 858.182 53.1253ZM793.631 47.7108C799.132 45.3106 804.867 43.3921 810.715 42.2278C821.759 40.0293 833.206 40.4327 843.558 44.283C847.72 45.8312 851.509 47.9611 855.071 50.464C851.423 48.8781 847.544 47.697 843.689 46.7389C838.602 45.4747 833.331 44.6213 828.055 44.2909C817.535 43.6331 806.809 44.828 796.544 47.8631C791.914 49.2316 787.403 51.0225 783.034 53.1304C783.879 52.6374 784.721 52.1379 785.581 51.6675C788.205 50.2287 790.891 48.9056 793.631 47.7108ZM739.064 22.6341C737.603 21.7734 736.173 20.8642 734.754 19.9439C734.79 19.9571 734.827 19.9691 734.862 19.9835C736.614 20.6616 738.364 21.3471 740.109 22.0402C743.652 23.448 747.185 24.8785 750.706 26.3353C757.746 29.2515 764.693 32.3583 771.592 35.5655C773.491 36.4491 775.386 37.3416 777.274 38.244C777.842 38.5154 778.41 38.7945 778.979 39.0737C764.916 35.4663 751.457 29.9373 739.064 22.6341ZM751.738 22.3867C759.667 25.2879 767.03 29.4208 774.039 33.9876C777.03 35.9354 779.952 37.9813 782.862 40.0446C782.849 40.0401 782.835 40.0382 782.821 40.0337C781.517 39.2329 780.123 38.5677 778.746 37.8944C777.013 37.0466 775.278 36.2078 773.537 35.3764C770.057 33.7124 766.557 32.0898 763.04 30.4972C756.061 27.3338 749.055 24.2191 741.966 21.2878C739.977 20.4654 737.982 19.653 735.986 18.8494C735.863 18.8013 735.739 18.7443 735.617 18.6937C741.14 19.2549 746.532 20.482 751.738 22.3867ZM777.542 10.717C766.031 14.0546 754.204 15.7318 742.422 15.6591C742.735 15.6223 743.051 15.5934 743.36 15.5552C746.513 15.1608 749.652 14.6079 752.769 13.9373C758.978 12.6025 765.097 10.8173 771.158 8.8434C783.43 4.8448 795.485 0.0729085 807.925 -3.32785C811.437 -4.2879 814.976 -5.12742 818.547 -5.77691C820.3 -6.09674 822.062 -6.37513 823.825 -6.60596C825.579 -6.83472 827.345 -6.95255 829.094 -7.21998C829.113 -7.19603 829.135 -7.17832 829.154 -7.15437C811.644 -2.1914 795.02 5.64997 777.542 10.717ZM827.832 -8.32156C828.104 -8.15495 828.362 -7.97495 828.593 -7.76538C825.655 -7.73928 822.631 -7.22211 819.73 -6.73766C816.675 -6.22704 813.635 -5.58618 810.613 -4.87139C804.363 -3.39239 798.202 -1.50777 792.083 0.498074C779.85 4.51136 767.728 9.07231 755.19 11.9029C752.551 12.4983 749.893 12.9786 747.227 13.388C749.55 12.7253 751.867 12.0393 754.173 11.3156C760.584 9.30531 766.905 6.98563 773.112 4.3631C785.124 -0.709637 796.977 -7.25196 809.92 -9.18634C816.021 -10.099 821.978 -9.72671 827.832 -8.32156ZM804.474 -10.9458C808.794 -11.3385 813.133 -11.3365 817.405 -10.84C817.963 -10.7756 818.517 -10.6818 819.071 -10.6008C816.934 -10.667 814.779 -10.5685 812.66 -10.3645C806.625 -9.78615 800.686 -8.17593 794.933 -6.12991C788.475 -3.832 782.246 -0.883395 775.941 1.81923C769.639 4.52199 763.227 6.94392 756.722 9.05242C753.081 10.2322 749.412 11.2914 745.717 12.2506C744.832 12.48 743.944 12.6837 743.058 12.9028C747.762 10.9375 752.286 8.43147 756.769 6.02878C771.722 -1.97888 787.587 -9.41309 804.474 -10.9458ZM703.933 37.6367C703.966 37.4509 704.001 37.2653 704.036 37.0797C704.065 37.2683 704.081 37.4589 704.108 37.6461C704.051 37.6306 703.992 37.6253 703.933 37.6367ZM687.511 87.89C693.684 75.0074 698.518 61.5108 701.827 47.7432C702.511 44.8981 703.1 42.0383 703.65 39.1716C703.611 52.5669 700.302 66.0408 693.767 78.0831C691.918 81.4884 689.826 84.7669 687.511 87.89ZM695.272 78.0467C699.86 69.164 702.835 59.5134 703.928 49.7189C704.303 46.363 704.445 43.0078 704.36 39.6574C705.718 52.7984 702.385 66.497 695.272 78.0467ZM712.993 67.5976C711.251 61.0802 709.774 54.4854 708.278 47.8974C711.479 54.5968 714.627 61.3157 717.316 68.2632C720.382 76.1877 722.978 84.3096 725.171 92.5475C726.211 96.4592 727.132 100.406 727.984 104.372C720.952 93.1476 716.432 80.4647 712.993 67.5976ZM729.603 106.868C729.746 106.71 729.832 106.502 729.781 106.253C726.233 89.3237 720.782 72.8753 713.767 57.1981C713.078 55.6589 712.371 54.1305 711.648 52.609C719.458 64.5818 725.043 78.1042 727.994 92.2121C728.932 96.6924 729.607 101.257 730.1 105.828C729.998 106.276 729.917 106.726 729.802 107.174C729.734 107.073 729.67 106.969 729.603 106.868ZM731.272 94.3195C731.356 97.3965 731.111 100.478 730.578 103.525C729.166 87.0835 723.83 71.0587 715.738 56.9987C713.382 52.9065 710.766 48.9727 707.937 45.2034C719.88 59.0873 730.757 75.1201 731.272 94.3195ZM688.587 67.3423C690.089 63.0744 691.969 58.9074 694.179 54.9277C696.245 51.2068 698.571 47.6237 700.549 43.8551C701.294 42.4378 702.034 40.9023 702.678 39.3213C699.699 52.9683 695.438 66.3569 689.845 79.2909C688.101 83.3206 686.251 87.3042 684.267 91.2329C684.239 91.288 684.237 91.3392 684.223 91.3937C684.212 91.4035 684.2 91.4157 684.189 91.4255C684.37 83.2905 685.845 75.1311 688.587 67.3423Z" fill="#5F5C7C"/>
<path d="M183.845 1317.22C235.453 1311.22 279.845 1282.56 319.85 1252.91C339.772 1238.15 360.248 1221.49 366.708 1199.14C369.369 1189.93 368.581 1178.54 359.859 1173.06C354.24 1169.53 346.851 1169.42 339.974 1169.58C284.903 1170.81 230.065 1179.96 178.231 1196.57C144.71 1207.31 111.875 1221.5 86.034 1243.35C72.2782 1254.97 22.2307 1308.67 59.4654 1316.91C77.3799 1320.87 99.3813 1316.56 117.809 1317.24C139.801 1318.07 161.914 1319.77 183.845 1317.22Z" fill="#FFE7C5"/>
<path d="M115.023 1201.5C154.687 1161.8 195.511 1120.27 212.096 1069.22C215.303 1059.36 217.558 1048.94 215.485 1038.83C213.412 1028.73 206.253 1018.95 195.404 1015.46C182.175 1011.19 167.658 1017 155.762 1023.69C115.488 1046.33 83.972 1081.08 67.5958 1120.91C51.2197 1160.74 50.0833 1205.4 64.4192 1245.85C84.3609 1222.93 104.305 1200.01 124.246 1177.08" fill="#FFE7C5"/>
<path d="M280.721 1167.38C324.447 1156.54 367.003 1140.28 402.765 1115.39C408.242 1111.57 413.674 1107.44 417.029 1102.01C420.384 1096.59 421.299 1089.58 417.668 1084.3C412.103 1076.2 399.345 1075.6 388.722 1076.33C338.449 1079.79 289.116 1092.77 244.52 1113.68C223.186 1123.67 196.658 1135.91 180.143 1151.89C170.507 1161.22 166.85 1180.86 184.962 1184.11C197.845 1186.43 218.147 1179.83 231.016 1177.62C247.72 1174.76 264.329 1171.44 280.721 1167.38Z" fill="#CEBBB6"/>
<path d="M343.668 1201.54L344.224 1201.4C345.291 1201.18 345.069 1199.76 343.965 1199.89C343.453 1199.95 342.938 1200.01 342.423 1200.07L342.11 1199.91L341.864 1199.84C341.697 1199.72 341.488 1199.63 341.208 1199.63L341.173 1199.64C322.329 1193.81 300.756 1194.37 281.757 1199.23C271.332 1201.9 261.609 1206.04 252.503 1211.27C241.991 1217.3 232.402 1224.49 222.434 1231.19C213.108 1237.46 203.37 1243.03 192.806 1247.5C183.078 1251.62 172.943 1254.94 162.7 1257.88C141.878 1263.87 120.52 1268.31 99.8962 1274.85C89.7581 1278.07 79.8025 1281.81 70.377 1286.45C65.4231 1288.89 60.4431 1291.61 55.9455 1294.82C57.5338 1291.84 59.1721 1288.88 60.8777 1285.95C61.095 1285.58 61.3209 1285.21 61.5404 1284.83C61.9467 1284.29 62.3573 1283.75 62.7463 1283.2C63.8848 1281.58 64.9495 1279.93 65.8946 1278.22C66.2814 1277.52 66.7659 1276.73 67.1831 1275.92C67.6589 1275.73 68.0326 1275.36 68.0978 1274.75C68.1239 1274.49 68.1586 1274.23 68.189 1273.97C68.4911 1273.5 68.8105 1273.04 69.1146 1272.57C69.6079 1272.46 70.0489 1272.16 70.1619 1271.6C70.2358 1271.22 70.364 1270.87 70.4705 1270.51L70.6008 1270.32C76.8693 1265.24 82.0687 1259.2 86.4946 1252.7C92.5045 1246.96 98.912 1241.54 105.285 1236.12C118.691 1224.72 133.096 1214.27 148.201 1204.71C152.416 1202.04 156.695 1199.45 161.029 1196.94C163.178 1195.69 165.338 1194.46 167.513 1193.25C169.118 1192.66 170.726 1192.07 172.332 1191.48C172.756 1191.33 173.177 1191.16 173.599 1191.01C174.918 1190.92 176.236 1190.83 177.555 1190.75C179.626 1190.62 181.703 1190.49 183.767 1190.28C185.818 1190.08 187.887 1189.94 189.871 1189.4C190.205 1189.32 190.303 1189.06 190.249 1188.81C198.744 1188.43 207.214 1187.63 215.603 1186.38C234.123 1183.61 252.209 1178.77 269.42 1172.08C287.623 1165.01 304.834 1156.03 321.184 1146.02C329.399 1140.98 337.412 1135.69 345.278 1130.23C352.522 1125.21 359.566 1119.96 366.792 1114.92C369.524 1113.02 372.305 1111.13 375.14 1109.29C375.94 1108.99 376.746 1108.71 377.541 1108.41C378.008 1108.23 378.052 1107.85 377.867 1107.56C387.907 1101.29 398.695 1095.93 410.715 1093.56C410.965 1093.53 411.215 1093.49 411.465 1093.46C413.655 1093.2 415.847 1092.97 418.044 1092.76C418.83 1092.69 419.445 1091.93 419.3 1091.24L419.119 1090.73C419.108 1090.39 418.945 1090.08 418.63 1089.89C417.629 1088.69 415.767 1088.13 414.137 1088.89C413.794 1089.06 413.596 1089.29 413.472 1089.55C413.531 1088.72 412.662 1087.87 411.475 1088.24C407.384 1089.49 403.312 1090.78 399.097 1091.66C394.904 1092.55 390.639 1093.16 386.354 1093.56C377.624 1094.38 368.828 1094.37 360.061 1094.28C351.235 1094.19 342.403 1094 333.582 1094.36C324.061 1094.75 314.6 1095.92 305.292 1097.73C286.548 1101.39 268.523 1107.53 251.162 1114.73C242.404 1118.36 233.789 1122.27 225.265 1126.32C215.792 1130.82 206.316 1135.57 198.142 1141.83C194.155 1144.88 190.494 1148.3 187.404 1152.1C184.53 1155.63 182.149 1159.45 179.863 1163.3C175.306 1170.97 171.224 1179.1 164.651 1185.62C164.18 1186.09 163.682 1186.54 163.195 1187C162.587 1187.07 161.983 1187.13 161.366 1187.23L161.338 1187.48C161.69 1187.58 162.035 1187.67 162.383 1187.76C161.425 1188.63 160.438 1189.47 159.4 1190.26L159.221 1190.55C156.093 1193.06 152.684 1195.27 148.84 1197.04C148.323 1197.28 148.071 1197.65 147.99 1198.05C144.571 1200.22 141.183 1202.44 137.841 1204.71C122.126 1215.41 107.344 1227.22 93.9385 1240.16C95.4529 1237.26 96.8696 1234.34 98.2058 1231.43C105.591 1215.37 110.949 1198.56 119.736 1183.02C124.22 1175.08 129.789 1167.82 135.908 1160.82C142.141 1153.69 148.71 1146.76 154.189 1139.13C164.621 1124.61 169.51 1107.91 175.545 1091.71C181.514 1075.7 189.401 1059 204.563 1048.14C206.41 1046.82 208.348 1045.59 210.375 1044.5C211.768 1043.75 211.444 1041.46 209.532 1041.78C209.473 1041.27 208.952 1040.81 208.267 1041.1C206.935 1041.66 205.634 1042.28 204.319 1042.87C183.4 1047.39 163.441 1055.06 145.344 1065.45C125.77 1076.69 108.435 1091.08 94.6099 1107.78C81.632 1123.46 71.8762 1141.21 65.7078 1159.89C59.6001 1178.38 56.9537 1197.73 57.9271 1216.99C58.4116 1226.55 59.8065 1236.08 62.1357 1245.42C63.5132 1250.95 65.51 1256.9 65.9554 1262.78C65.7577 1264.43 65.5209 1266.08 65.3427 1267.73C65.1776 1269.24 65.0277 1270.75 64.8777 1272.27C64.6366 1272.46 64.4063 1272.66 64.1629 1272.85C63.6501 1273.25 63.7696 1273.8 64.139 1274.12L64.063 1274.27C59.2677 1280.83 54.8656 1287.64 50.8678 1294.63C51.1676 1293.42 51.45 1292.21 51.6934 1290.99C53.9857 1279.54 53.675 1267.75 51.6695 1256.28C47.2588 1231.04 35.2781 1207.6 26.2612 1183.54C23.6995 1176.7 21.3681 1169.79 19.5212 1162.78C18.6087 1159.31 17.7852 1155.81 17.1051 1152.3C16.601 1149.7 16.1991 1147.09 15.7211 1144.48C15.8384 1144.13 15.9405 1143.77 16.0426 1143.41C16.4859 1142.83 16.9183 1142.24 17.0638 1141.58C17.2616 1140.7 16.01 1139.9 15.1344 1140.32C13.9568 1140.89 13.2963 1142.23 12.727 1143.27C12.2012 1144.22 11.7949 1145.21 11.4863 1146.23C11.1583 1147.32 10.9279 1148.39 10.9475 1149.52C10.9518 1149.75 10.941 1150.02 10.9366 1150.3C10.7802 1150.63 10.6216 1150.96 10.4673 1151.29C9.08543 1154.25 7.83609 1157.26 6.72363 1160.31C4.46395 1166.49 2.79962 1172.86 1.67847 1179.29C-0.561653 1192.12 -0.563828 1205.29 1.69802 1218.12C4.18367 1232.23 9.83721 1245.38 16.6097 1258.26C23.6929 1271.73 31.5149 1285.1 35.2499 1299.7C35.4976 1300.66 35.7018 1301.64 35.9126 1302.62C35.7583 1305.61 35.8843 1308.64 35.7583 1311.56C35.5628 1316.06 35.1869 1320.55 34.6328 1325.03C34.0896 1329.4 33.3639 1333.74 32.4861 1338.05C31.8864 1339.24 31.3128 1340.41 30.8261 1341.66C30.6806 1342.04 30.724 1342.37 30.8761 1342.63C30.5567 1343.44 30.2634 1344.26 29.9158 1345.06C29.2661 1346.57 28.573 1348.06 27.869 1349.55C27.5018 1350.33 27.9885 1350.91 28.6621 1351.14C28.0428 1353.5 27.441 1355.87 26.9325 1358.26C26.7196 1359.25 26.5328 1360.25 26.335 1361.25C25.8353 1362.83 25.3399 1364.41 24.8228 1365.99C24.7076 1366.34 24.9923 1366.58 25.303 1366.61C25.0531 1367.98 24.7989 1369.35 24.5577 1370.72C24.3339 1372 23.0998 1375.18 24.8184 1375.96C26.9434 1376.94 27.2259 1373.73 27.4127 1372.64C27.4866 1372.2 27.5735 1371.77 27.6496 1371.33L27.6887 1371.28C27.6018 1372.17 27.5518 1373.06 27.6148 1373.96C27.6756 1374.86 29.1031 1374.86 29.4443 1374.13C30.4198 1372.07 30.8544 1369.89 31.3346 1367.69C31.8191 1365.45 32.3362 1363.22 32.8838 1361C33.9701 1356.59 35.1847 1352.21 36.521 1347.86C39.2 1339.13 42.2745 1330.53 45.7422 1322.03C46.3658 1320.5 47.0285 1318.99 47.6825 1317.47C50.3854 1314.71 54.0856 1312.72 58.2486 1312.47C58.5289 1312.45 58.6984 1312.3 58.781 1312.11C66.9875 1313.17 75.2071 1314.15 83.4267 1315.11C94.3035 1316.37 105.204 1317.55 116.162 1318.09C137.967 1319.16 159.875 1317.34 179.889 1309.07C200.435 1300.57 217.639 1286.98 233.482 1272.81C249.022 1258.91 263.579 1244.12 280.414 1231.42C296.28 1219.44 314.403 1209 334.959 1204.95C337.462 1204.46 339.994 1204.03 342.518 1203.64C343.805 1203.44 344.102 1202.33 343.668 1201.54ZM171.482 1186.71C185.505 1178.94 199.989 1171.81 214.718 1165.21C244.32 1151.93 274.984 1140.61 305.744 1129.67C326.703 1122.21 347.835 1115.05 368.744 1107.44C364.765 1109.39 360.841 1111.43 356.932 1113.48C356.743 1113.58 356.557 1113.68 356.368 1113.78C355.963 1113.92 355.557 1114.06 355.153 1114.2C348.131 1116.66 341.152 1119.21 334.225 1121.87C320.373 1127.2 306.679 1132.85 293.186 1138.86C279.595 1144.92 266.332 1151.48 253.024 1158.01C246.536 1161.19 240.007 1164.37 233.254 1167.08C226.799 1169.68 220.133 1171.76 213.358 1173.58C199.539 1177.29 185.049 1180.15 172.486 1186.7C172.149 1186.7 171.817 1186.71 171.482 1186.71ZM173.746 1186.64C185.047 1181.41 197.382 1178.59 209.623 1175.57C216.224 1173.94 222.792 1172.23 229.163 1169.97C236.042 1167.54 242.754 1164.7 249.283 1161.6C262.506 1155.32 275.515 1148.71 288.897 1142.69C302.511 1136.55 316.323 1130.76 330.336 1125.39C335.103 1123.56 339.896 1121.78 344.698 1120.02C341.706 1121.65 338.716 1123.28 335.752 1124.95C321.571 1132.91 307.428 1140.92 292.99 1148.51C267.202 1162.06 240.172 1174.31 211.103 1181.19C198.822 1184.09 186.355 1185.83 173.746 1186.64ZM350.877 1122.32C343.157 1127.93 335.298 1133.39 327.229 1138.6C311.181 1148.96 294.344 1158.42 276.477 1166.09C259.314 1173.47 241.261 1179.08 222.584 1182.49C213.304 1184.19 203.946 1185.29 194.544 1185.95C198.44 1185.35 202.31 1184.65 206.134 1183.84C220.261 1180.87 234.006 1176.57 247.323 1171.44C261.263 1166.08 274.719 1159.79 287.875 1153.05C302.485 1145.56 316.619 1137.4 331.07 1129.68C339.107 1125.39 347.092 1121.02 355.175 1116.8C356.3 1116.21 357.443 1115.66 358.575 1115.08C360.013 1114.59 361.45 1114.09 362.89 1113.6C358.862 1116.48 354.875 1119.41 350.877 1122.32ZM386.845 1097.44C362.934 1106.17 338.896 1114.64 314.879 1123.13C283.423 1134.25 252.101 1145.69 221.786 1159.13C204.543 1166.78 187.643 1175.06 171.33 1184.16C174.444 1181.36 177.625 1178.62 180.967 1176.01C188.035 1170.48 195.531 1165.39 203.326 1160.7C219.066 1151.24 235.998 1143.48 253.404 1136.76C270.704 1130.09 288.49 1124.51 306.348 1119.15C323.73 1113.94 341.132 1108.7 358.712 1104.03C367.992 1101.56 377.376 1099.32 386.845 1097.44ZM178.188 1171.47C182.963 1163.64 187.337 1155.56 194.168 1148.94C201.458 1141.87 210.703 1136.61 220.05 1131.97C228.715 1127.67 237.569 1123.63 246.499 1119.79C263.723 1112.37 281.55 1105.83 300.147 1101.7C309.408 1099.64 318.842 1098.17 328.358 1097.49C337.223 1096.86 346.123 1096.95 355.007 1097.07C362.327 1097.16 369.724 1097.25 377.083 1096.98C372.872 1097.96 368.674 1098.99 364.492 1100.07C346.829 1104.64 329.427 1109.99 312.019 1115.26C293.94 1120.74 275.945 1126.46 258.341 1133.06C240.87 1139.62 223.853 1147.18 207.865 1156.28C194.023 1164.16 180.728 1173.25 169.31 1183.85C172.769 1180.06 175.58 1175.74 178.188 1171.47ZM89.9797 1239.61C88.5674 1243.06 86.1969 1246.1 83.6157 1248.94C80.6868 1252.16 77.3885 1255.2 74.4901 1258.48C77.9861 1245.87 82.1686 1233.4 86.9487 1221.13C93.0737 1205.42 100.055 1189.99 107.364 1174.69C114.769 1159.18 122.441 1143.76 130.311 1128.44C138.417 1112.65 147.041 1097 158.611 1082.96C164.134 1076.26 170.294 1069.98 177.169 1064.34C181.095 1061.13 185.251 1058.27 189.584 1055.62C176.762 1064.84 170.324 1079.62 164.934 1093.19C161.62 1101.54 158.296 1109.84 153.733 1117.72C149.133 1125.67 143.684 1133.2 138.007 1140.56C127.284 1154.46 115.647 1167.9 106.597 1182.76C102.358 1189.72 98.6969 1196.99 96.1417 1204.58C94.8793 1208.33 93.8712 1212.16 93.1867 1216.03C92.4871 1219.98 92.2611 1223.95 92.0417 1227.94C91.8222 1231.88 91.505 1235.88 89.9797 1239.61ZM175.858 1082.33C169.086 1098.34 165.001 1115.29 156.112 1130.56C146.806 1146.55 131.621 1158.98 121.398 1174.44C111.477 1189.45 105.745 1206.21 98.9967 1222.45C97.5583 1225.92 96.0244 1229.39 94.41 1232.84C94.7968 1229.54 94.838 1226.21 95.0857 1222.9C95.3747 1219.01 96.0113 1215.15 96.95 1211.35C98.8359 1203.71 101.971 1196.32 105.739 1189.27C113.765 1174.24 124.711 1160.8 135.341 1147.2C140.931 1140.05 146.383 1132.78 151.204 1125.19C156.001 1117.64 159.973 1109.78 163.263 1101.62C169.757 1085.49 175.213 1067.61 190.54 1056.12C191.507 1055.39 192.5 1054.7 193.519 1054.03C185.731 1062.29 180.126 1072.25 175.858 1082.33ZM66.2118 1169.47C71.1853 1150.86 79.6613 1132.95 91.4225 1116.93C104.118 1099.65 120.498 1084.6 139.33 1072.56C143.664 1069.79 148.145 1067.19 152.729 1064.74C151.36 1065.67 150.007 1066.6 148.688 1067.56C131.795 1079.91 118.484 1095.74 106.021 1111.58C94.0254 1126.83 82.7814 1142.67 74.4423 1159.79C67.1092 1174.85 62.1335 1190.95 61.1319 1207.38C61.0667 1208.46 61.0602 1209.55 61.0298 1210.63C60.8799 1196.79 62.6159 1182.92 66.2118 1169.47ZM73.0213 1168.65C80.274 1151.25 90.8336 1135.14 102.401 1119.77C108.364 1111.85 114.534 1104.02 120.972 1096.4C127.621 1088.53 134.778 1080.95 142.789 1074.15C151.058 1067.13 160.432 1060.9 170.674 1056.3C174.655 1054.66 178.705 1053.16 182.805 1051.77C185.36 1051.01 187.961 1050.37 190.601 1049.84C178.898 1056.39 167.986 1064.1 157.974 1072.55C142.954 1085.23 129.794 1099.65 118.667 1115.18C107.703 1130.49 98.7251 1146.85 91.3964 1163.78C84.2002 1180.4 78.6705 1197.56 74.4597 1214.97C72.2 1224.32 70.3097 1233.74 68.7366 1243.2C68.276 1241.75 67.7849 1240.31 67.3482 1238.92C64.956 1231.29 63.7197 1223.38 63.5241 1215.46C63.1222 1199.49 66.7941 1183.58 73.0213 1168.65ZM64.3932 1240.66C63.7262 1237.59 63.1939 1234.51 62.7245 1231.42C63.4807 1235.11 64.5301 1238.72 65.7034 1242.32C66.5247 1244.84 67.3743 1247.46 67.6611 1250.1C67.5481 1250.86 67.4177 1251.61 67.3091 1252.37C66.34 1248.47 65.2471 1244.59 64.3932 1240.66ZM69.2494 1265.09C70.9963 1250.76 73.2451 1236.48 76.3826 1222.33C80.2153 1205.05 85.254 1187.95 91.8396 1171.33C98.4905 1154.55 106.79 1138.27 117.002 1122.96C127.486 1107.25 139.877 1092.48 154.22 1079.39C161.34 1072.89 168.929 1066.8 176.966 1061.22C183.502 1056.68 190.346 1052.6 197.373 1048.73C198.038 1048.65 198.705 1048.56 199.37 1048.49C198.794 1048.97 198.218 1049.45 197.662 1049.94C184.013 1056.45 172.347 1065.84 162.533 1076.54C150.202 1089.98 140.946 1105.39 132.46 1120.95C124.062 1136.33 116.155 1151.97 108.348 1167.6C100.62 1183.08 93.278 1198.71 86.7662 1214.63C80.3196 1230.38 74.766 1246.42 70.5748 1262.78C70.4596 1263.22 70.3553 1263.67 70.2445 1264.12C69.8751 1264.73 69.534 1265.36 69.2146 1266.01C69.2255 1265.7 69.2515 1265.4 69.2494 1265.09ZM126.686 1215.45C119.59 1220.66 112.687 1226.1 106.045 1231.76C112.146 1226.45 118.486 1221.35 125.031 1216.46C125.704 1216.04 126.371 1215.61 127.047 1215.19L126.686 1215.45ZM16.336 1160.19C17.8004 1166.3 19.6559 1172.33 21.7222 1178.3C25.8635 1190.25 30.9044 1201.93 35.6128 1213.71C44.7644 1236.6 52.7776 1260.63 49.5858 1285.19C49.0187 1289.55 48.0801 1293.86 46.7634 1298.08C46.7895 1297.76 46.8416 1297.45 46.8633 1297.13C47.6716 1285.03 46.2267 1272.87 43.4803 1261.02C37.4183 1234.88 25.3834 1210.2 19.0367 1184.11C16.6293 1174.22 15.0649 1164.12 14.9628 1153.99C15.3734 1156.09 15.8493 1158.16 16.336 1160.19ZM23.7516 1265.21C16.5641 1251.91 9.43307 1238.61 5.86756 1224.1C2.72139 1211.3 1.92399 1198.07 3.43624 1185.04C4.18801 1178.57 5.49167 1172.15 7.3798 1165.86C8.08378 1163.52 8.89423 1161.22 9.75247 1158.93C8.81166 1168.42 9.34834 1178.05 10.6563 1187.46C12.5445 1201.06 16.1686 1214.39 20.0079 1227.64C23.8146 1240.79 28.058 1253.83 31.2455 1267.11C33.0228 1274.52 34.5264 1282 35.5476 1289.54C32.3123 1281.2 28.0493 1273.17 23.7516 1265.21ZM40.1777 1305.79C40.0604 1305.1 39.8866 1304.43 39.7497 1303.75C39.326 1293.32 37.6638 1282.93 35.3042 1272.71C32.2428 1259.45 27.9798 1246.44 23.8711 1233.41C19.6864 1220.14 15.7471 1206.77 13.2854 1193.15C10.9366 1180.15 10.137 1166.98 11.7492 1153.89C11.9404 1153.43 12.149 1152.97 12.3424 1152.52C12.69 1152.21 12.7791 1151.79 12.8443 1151.36C13.2528 1150.42 13.6504 1149.47 14.0763 1148.53C12.538 1171.46 19.3431 1194.09 26.7957 1215.9C35.1847 1240.45 44.8166 1265.45 44.206 1291.45C44.0626 1297.54 43.3456 1303.63 41.9681 1309.6C41.6031 1310.29 41.2532 1310.98 40.8621 1311.66C40.7122 1309.69 40.508 1307.73 40.1777 1305.79ZM52.556 1301.4C56.6082 1297.59 61.4969 1294.4 66.4834 1291.67C75.6329 1286.68 85.4734 1282.69 95.4855 1279.29C115.558 1272.46 136.49 1267.98 157.012 1262.4C177.599 1256.81 197.762 1249.91 215.574 1238.96C235.047 1227 252.09 1211.69 274.55 1204.05C285.362 1200.36 296.886 1198.36 308.469 1198.02C299.793 1198.78 291.206 1200.77 283.121 1203.58C262.38 1210.8 244.674 1223.4 227.54 1235.76C210.032 1248.39 192.243 1261.27 171.137 1268.83C150.824 1276.12 128.95 1278.6 107.662 1282.62C88.2241 1286.28 68.3433 1291.52 52.1714 1302.15C52.2974 1301.9 52.4321 1301.65 52.556 1301.4ZM54.7722 1308.69C54.2486 1308.79 53.7358 1308.91 53.2165 1309.02L53.1709 1309.01C53.6923 1308.74 54.2073 1308.46 54.7353 1308.2C59.2829 1305.95 64.0325 1304.02 68.8909 1302.37C78.8834 1298.97 89.3409 1296.74 99.855 1295.06C120.903 1291.7 142.335 1290.68 163.33 1287.02C173.746 1285.19 184.078 1282.73 193.873 1279.04C204.243 1275.15 213.71 1269.75 222.438 1263.44C240.405 1250.46 255.462 1234.48 274.85 1223.04C281.285 1219.24 288.025 1216.03 294.983 1213.28C289.892 1216.1 284.986 1219.19 280.253 1222.46C271.771 1228.31 263.971 1234.88 256.214 1241.47C247.794 1248.61 239.575 1255.95 231.027 1262.98C214.169 1276.84 195.904 1289.67 173.918 1296.32C154.935 1302.07 134.728 1303.36 114.836 1304.13C94.7816 1304.92 74.4966 1305.04 54.7722 1308.69ZM187.196 1302.48C177.564 1307.35 167.222 1311.03 156.382 1313.1C145.835 1315.12 135.012 1315.76 124.244 1315.58C113.357 1315.41 102.508 1314.45 91.7049 1313.29C84.4001 1312.5 77.1039 1311.67 69.8056 1310.84C80.828 1310.06 92.0156 1310.41 102.997 1310.79C113.346 1311.15 123.716 1311.53 134.067 1311.04C144.794 1310.53 155.356 1308.91 165.549 1305.85C187.289 1299.33 206.336 1287.28 223.716 1274.21C232.707 1267.46 241.359 1260.36 250.054 1253.3C246.384 1256.7 242.734 1260.13 239.062 1263.53C223.42 1278.02 206.972 1292.48 187.196 1302.48ZM312.456 1208.62C302.963 1212.66 294.096 1217.83 285.79 1223.56C285.424 1223.81 285.075 1224.08 284.712 1224.34C284.008 1224.8 283.287 1225.25 282.589 1225.72C264.075 1238.3 247.688 1253.03 230.388 1266.85C213.145 1280.62 194.414 1293.68 172.912 1301.73C162.626 1305.58 151.825 1308.09 140.723 1309.1C130.348 1310.05 119.899 1309.87 109.491 1309.55C94.0015 1309.06 78.1773 1308.13 62.7789 1310.05C60.7908 1309.83 58.8049 1309.6 56.8168 1309.39C63.7609 1308.38 70.7268 1307.55 77.7579 1307.06C87.8526 1306.35 97.969 1306.02 108.085 1305.69C127.892 1305.05 147.951 1304.32 167.183 1299.67C177.562 1297.15 187.452 1293.43 196.739 1288.6C206.644 1283.44 215.792 1277.22 224.474 1270.56C233.335 1263.76 241.7 1256.48 250.102 1249.24C257.941 1242.49 265.876 1235.93 274.296 1229.75C287.102 1220.36 301.136 1211.7 316.688 1206.39C318.105 1206.04 319.52 1205.69 320.949 1205.37C318.057 1206.36 315.213 1207.45 312.456 1208.62ZM325.399 1201.17C320.228 1202.02 315.111 1203.16 310.101 1204.55C299.947 1207.37 290.137 1211.16 280.907 1215.87C271.223 1220.8 262.337 1226.73 253.998 1233.32C245.137 1240.32 236.818 1247.85 227.994 1254.89C219.329 1261.8 210.121 1268.26 199.735 1273.01C190.264 1277.34 180.1 1280.34 169.751 1282.49C148.675 1286.89 127.004 1287.98 105.687 1291.07C95.0727 1292.61 84.5239 1294.63 74.3163 1297.68C66.5334 1300 58.7766 1302.95 51.7347 1306.83C51.3349 1306.58 50.6765 1306.61 50.3897 1307.12C50.2659 1307.35 50.1551 1307.57 50.0312 1307.79C49.7879 1307.94 49.538 1308.07 49.2968 1308.21C49.6488 1307.45 50.0095 1306.69 50.368 1305.94C64.969 1295.28 83.3245 1289.55 101.554 1285.71C122.239 1281.35 143.504 1279.11 163.739 1273.12C174.111 1270.04 183.902 1265.83 193.175 1260.69C202.616 1255.46 211.459 1249.42 220.126 1243.24C237.689 1230.7 254.784 1217.19 275.084 1208.2C291.96 1200.73 311.296 1196.67 330.058 1199.89C330.303 1199.94 330.544 1200 330.79 1200.04C328.978 1200.35 327.183 1200.74 325.399 1201.17Z" fill="#5F5C7C"/>
<path d="M1139.58 532.643C1136.78 545.869 1110.8 559.916 1103.27 558.323C1095.73 556.729 1102.68 538.656 1105.47 525.429C1108.27 512.203 1137.95 503.109 1145.49 504.702C1153.02 506.296 1142.38 519.416 1139.58 532.643Z" fill="#CEBBB6"/>
<path d="M1067.64 569.552C1065.54 579.472 1047.79 588.29 1040.26 586.696C1032.73 585.103 1032.86 576.79 1040.36 563.781C1042.46 553.862 1064.33 548.001 1071.86 549.595C1079.39 551.188 1069.74 559.632 1067.64 569.552Z" fill="#CEBBB6"/>
<path d="M1111.75 608.072C1108.72 622.4 1075.9 640.105 1069.62 638.777C1063.35 637.449 1076.12 619.301 1084.47 602.301C1087.5 587.972 1117.24 582.127 1105.87 579.723C1112.15 581.051 1114.78 593.743 1111.75 608.072Z" fill="#CEBBB6"/>
<path d="M1008.14 648.708C999.374 667.704 974.17 670.713 970.403 669.916C966.636 669.119 972.936 657.941 985.407 643.899C988.904 627.366 1021.65 622.375 1025.42 623.172C1029.19 623.969 1022.46 637.142 1008.14 648.708Z" fill="#CEBBB6"/>
<path d="M1104.48 664.914C1102.84 672.629 1088.34 682.352 1082.07 681.024C1075.79 679.696 1080.11 667.82 1081.74 660.105C1083.37 652.389 1094.75 646.177 1101.03 647.505C1107.31 648.833 1106.11 657.198 1104.48 664.914Z" fill="#CEBBB6"/>
<path d="M944.713 679.077C942.848 687.895 924.035 695.553 917.756 694.225C899.569 690.379 901.68 680.4 915.158 672.826C917.023 664.008 930.444 659.379 936.722 660.707C948.09 663.111 946.578 670.259 944.713 679.077Z" fill="#CEBBB6"/>
<path d="M1029.76 713.384C1015.13 726.924 992.052 739.211 985.445 733.563C978.837 727.915 991.206 706.471 1005.83 692.931C1020.45 679.391 1037.23 665.205 1043.84 670.853C1050.45 676.501 1044.38 699.844 1029.76 713.384Z" fill="#CEBBB6"/>
<path d="M1096.65 748.481C1080.26 769.322 1051.57 791.992 1045.21 787.904C1038.85 783.815 1054.09 758.508 1073.62 733.675C1090.01 712.834 1101.63 690.759 1107.99 694.848C1114.35 698.937 1113.04 727.641 1096.65 748.481Z" fill="#CEBBB6"/>
<path d="M922.462 767.694C912.372 775.885 894.954 782.393 890.512 778.118C886.069 773.844 896.284 760.405 906.375 752.214C916.465 744.023 938.975 737.079 943.418 741.353C947.86 745.628 932.553 759.503 922.462 767.694Z" fill="#CEBBB6"/>
<path d="M975.118 799.84C963.369 812.703 941.513 828.549 937.478 825.583C933.443 822.616 942.966 799.638 960.507 789.097C972.255 776.234 981.898 761.974 985.933 764.941C989.968 767.908 989.22 784.401 975.118 799.84Z" fill="#CEBBB6"/>
<path d="M1003.4 833.157C993.983 844.838 976.744 859.168 971.485 855.711C966.226 852.253 968.885 834.311 984.354 820.637C993.77 808.957 1005.71 793.885 1010.97 797.343C1016.23 800.8 1012.81 821.477 1003.4 833.157Z" fill="#CEBBB6"/>
<path d="M1039.92 845.857C1031.8 849.835 1026.33 866.798 1021.92 864.294C1017.52 861.79 1017.5 846.241 1023.98 836.788C1030.46 827.336 1041.99 812.755 1046.39 815.259C1050.79 817.763 1048.04 841.878 1039.92 845.857Z" fill="#CEBBB6"/>
</svg>
