<svg width="420" height="335" viewBox="0 0 420 335" fill="none" xmlns="http://www.w3.org/2000/svg">
<path d="M183.845 303.22C235.453 297.223 279.845 268.561 319.85 238.911C339.772 224.146 360.248 207.494 366.708 185.14C369.369 175.933 368.581 164.545 359.859 159.061C354.24 155.527 346.851 155.424 339.974 155.577C284.903 156.806 230.065 165.957 178.231 182.57C144.71 193.314 111.875 207.504 86.034 229.346C72.2782 240.972 22.2307 294.673 59.4654 302.911C77.3799 306.874 99.3813 302.557 117.809 303.244C139.801 304.066 161.914 305.771 183.845 303.22Z" fill="#FFE7C5"/>
<path d="M115.023 187.501C154.687 147.8 195.511 106.271 212.096 55.2226C215.303 45.3555 217.558 34.9388 215.485 24.8337C213.412 14.7286 206.253 4.94852 195.404 1.45564C182.175 -2.80546 167.658 2.99986 155.762 9.6876C115.488 32.3264 83.972 67.079 67.5958 106.909C51.2197 146.738 50.0833 191.4 64.4192 231.85C84.3609 208.926 104.305 186.005 124.246 163.082" fill="#FFE7C5"/>
<path d="M280.721 153.375C324.447 142.544 367.003 126.278 402.765 101.387C408.242 97.5744 413.674 93.4371 417.029 88.013C420.384 82.5889 421.299 75.578 417.668 70.2971C412.103 62.2045 399.345 61.5969 388.722 62.3283C338.449 65.7922 289.116 78.7748 244.52 99.6759C223.186 109.675 196.658 121.912 180.143 137.892C170.507 147.216 166.85 166.857 184.962 170.114C197.845 172.43 218.147 165.828 231.016 163.624C247.721 160.761 264.329 157.435 280.721 153.375Z" fill="#CEBBB6"/>
<path d="M343.668 187.536L344.224 187.4C345.291 187.183 345.069 185.757 343.965 185.891C343.453 185.953 342.938 186.011 342.423 186.069L342.11 185.914L341.864 185.841C341.697 185.717 341.488 185.63 341.208 185.633L341.173 185.635C322.329 179.809 300.756 180.37 281.757 185.233C271.332 187.901 261.609 192.037 252.503 197.267C241.991 203.305 232.402 210.488 222.434 217.191C213.108 223.463 203.37 229.03 192.806 233.5C183.078 237.618 172.943 240.937 162.7 243.882C141.878 249.867 120.52 254.309 99.8962 260.853C89.7581 264.069 79.8025 267.806 70.377 272.448C65.4231 274.888 60.4431 277.615 55.9455 280.823C57.5338 277.843 59.1721 274.885 60.8777 271.953C61.095 271.579 61.3209 271.206 61.5404 270.832C61.9467 270.289 62.3573 269.749 62.7463 269.195C63.8848 267.581 64.9495 265.935 65.8946 264.224C66.2814 263.524 66.7659 262.732 67.183 261.915C67.6589 261.732 68.0326 261.358 68.0978 260.747C68.1239 260.489 68.1586 260.232 68.1891 259.973C68.4911 259.5 68.8105 259.04 69.1146 258.568C69.6079 258.461 70.0489 258.163 70.1619 257.596C70.2358 257.225 70.364 256.873 70.4704 256.513L70.6008 256.315C76.8693 251.236 82.0687 245.2 86.4946 238.702C92.5045 232.958 98.912 227.538 105.285 222.122C118.691 210.724 133.096 200.274 148.201 190.713C152.416 188.045 156.695 185.452 161.029 182.938C163.178 181.692 165.338 180.463 167.513 179.253C169.118 178.663 170.726 178.071 172.332 177.481C172.756 177.326 173.177 177.163 173.599 177.007C174.918 176.924 176.236 176.835 177.555 176.749C179.626 176.616 181.703 176.486 183.767 176.281C185.818 176.078 187.887 175.937 189.871 175.404C190.205 175.315 190.303 175.058 190.249 174.81C198.744 174.425 207.214 173.634 215.603 172.38C234.123 169.613 252.209 164.765 269.42 158.083C287.623 151.014 304.834 142.028 321.184 132.015C329.399 126.984 337.412 121.686 345.278 116.231C352.522 111.207 359.566 105.961 366.792 100.92C369.524 99.0161 372.305 97.1255 375.14 95.2891C375.94 94.993 376.746 94.7105 377.541 94.4066C378.008 94.2286 378.052 93.8455 377.867 93.5571C387.907 87.2932 398.695 81.9349 410.715 79.5605C410.965 79.5295 411.215 79.4928 411.465 79.4618C413.655 79.2006 415.847 78.9703 418.044 78.7632C418.83 78.6897 419.445 77.9253 419.3 77.2384L419.119 76.7256C419.108 76.3869 418.945 76.0792 418.63 75.8877C417.629 74.686 415.767 74.1286 414.137 74.8949C413.794 75.0556 413.596 75.2936 413.472 75.549C413.531 74.7188 412.662 73.8732 411.475 74.237C407.384 75.4851 403.312 76.7759 399.097 77.6641C394.904 78.5465 390.639 79.156 386.354 79.5585C377.624 80.3771 368.828 80.3694 360.061 80.2784C351.235 80.1855 342.403 79.9998 333.582 80.3616C324.061 80.7525 314.6 81.9155 305.292 83.7307C286.548 87.3861 268.523 93.5281 251.162 100.731C242.404 104.365 233.789 108.27 225.265 112.318C215.792 116.817 206.316 121.57 198.142 127.83C194.155 130.883 190.494 134.301 187.404 138.096C184.53 141.625 182.149 145.453 179.863 149.302C175.306 156.975 171.224 165.096 164.651 171.619C164.18 172.088 163.682 172.539 163.195 172.995C162.587 173.071 161.983 173.129 161.366 173.227L161.338 173.475C161.69 173.58 162.035 173.671 162.383 173.764C161.425 174.63 160.438 175.474 159.4 176.264L159.221 176.552C156.093 179.06 152.684 181.274 148.84 183.042C148.323 183.28 148.071 183.654 147.99 184.047C144.571 186.222 141.183 188.437 137.841 190.713C122.126 201.408 107.344 213.22 93.9385 226.162C95.4529 223.264 96.8696 220.342 98.2058 217.433C105.591 201.368 110.949 184.561 119.736 169.017C124.22 161.083 129.789 153.82 135.908 146.821C142.141 139.69 148.71 132.759 154.189 125.132C164.621 110.611 169.51 93.9055 175.545 77.7125C181.514 61.7014 189.401 44.9975 204.563 34.1435C206.41 32.8218 208.348 31.593 210.375 30.4997C211.768 29.7469 211.444 27.4558 209.532 27.7809C209.473 27.2681 208.952 26.8094 208.267 27.0978C206.935 27.6609 205.634 28.2762 204.319 28.8723C183.4 33.3869 163.441 41.0634 145.344 51.453C125.77 62.6921 108.435 77.0816 94.6099 93.7816C81.632 109.456 71.8762 127.211 65.7078 145.886C59.6001 164.384 56.9537 183.731 57.9271 202.993C58.4116 212.555 59.8065 222.079 62.1357 231.424C63.5132 236.947 65.51 242.903 65.9554 248.782C65.7577 250.431 65.5209 252.075 65.3427 253.726C65.1776 255.239 65.0277 256.753 64.8778 258.266C64.6366 258.459 64.4063 258.661 64.1629 258.85C63.6501 259.247 63.7696 259.797 64.139 260.116L64.063 260.271C59.2677 266.829 54.8656 273.638 50.8678 280.63C51.1676 279.422 51.45 278.211 51.6934 276.994C53.9857 265.538 53.675 253.745 51.6695 242.276C47.2588 217.038 35.2781 193.598 26.2612 169.535C23.6995 162.7 21.3681 155.794 19.5212 148.777C18.6087 145.306 17.7852 141.811 17.1051 138.299C16.601 135.7 16.1991 133.086 15.7211 130.483C15.8384 130.133 15.9405 129.773 16.0426 129.411C16.4859 128.828 16.9183 128.236 17.0638 127.582C17.2616 126.704 16.01 125.901 15.1344 126.324C13.9568 126.893 13.2963 128.234 12.727 129.268C12.2012 130.222 11.7949 131.209 11.4863 132.234C11.1583 133.324 10.9279 134.388 10.9475 135.518C10.9518 135.746 10.941 136.017 10.9366 136.304C10.7802 136.631 10.6216 136.958 10.4673 137.287C9.08543 140.247 7.83609 143.257 6.72363 146.306C4.46395 152.493 2.79962 158.857 1.67847 165.286C-0.561653 178.119 -0.563828 191.29 1.69802 204.121C4.18367 218.226 9.83721 231.379 16.6097 244.258C23.6929 257.728 31.5149 271.096 35.2499 285.696C35.4976 286.664 35.7018 287.645 35.9126 288.624C35.7583 291.606 35.8843 294.638 35.7583 297.564C35.5628 302.063 35.1869 306.555 34.6328 311.03C34.0896 315.4 33.3639 319.737 32.4861 324.048C31.8864 325.242 31.3128 326.413 30.8261 327.665C30.6806 328.04 30.724 328.367 30.8761 328.626C30.5567 329.439 30.2634 330.258 29.9158 331.061C29.2661 332.566 28.573 334.062 27.869 335.548C27.5018 336.326 27.9885 336.914 28.6621 337.135C28.0428 339.5 27.441 341.868 26.9325 344.258C26.7196 345.253 26.5328 346.253 26.335 347.25C25.8353 348.831 25.3399 350.412 24.8228 351.987C24.7076 352.343 24.9923 352.575 25.303 352.61C25.0531 353.98 24.7989 355.352 24.5577 356.724C24.3339 357.997 23.0998 361.177 24.8184 361.963C26.9434 362.936 27.2259 359.729 27.4127 358.636C27.4866 358.199 27.5735 357.765 27.6496 357.328L27.6887 357.278C27.6018 358.166 27.5518 359.058 27.6148 359.964C27.6756 360.859 29.1031 360.856 29.4443 360.134C30.4198 358.067 30.8544 355.892 31.3346 353.688C31.8191 351.453 32.3362 349.222 32.8838 346.998C33.9701 342.59 35.1847 338.209 36.521 333.857C39.2 325.128 42.2745 316.534 45.7422 308.029C46.3658 306.5 47.0285 304.987 47.6825 303.468C50.3854 300.714 54.0856 298.721 58.2486 298.466C58.5289 298.448 58.6984 298.299 58.781 298.112C66.9875 299.168 75.2071 300.151 83.4267 301.105C94.3035 302.369 105.204 303.551 116.162 304.091C137.967 305.161 159.875 303.336 179.889 295.066C200.435 286.575 217.639 272.984 233.482 258.813C249.022 244.914 263.58 230.124 280.414 217.416C296.28 205.437 314.403 194.997 334.959 190.951C337.462 190.458 339.994 190.034 342.518 189.635C343.805 189.436 344.102 188.329 343.668 187.536ZM171.482 172.705C185.505 164.937 199.989 157.814 214.718 151.208C244.32 137.933 274.984 126.615 305.744 115.67C326.703 108.212 347.835 101.054 368.744 93.443C364.765 95.3916 360.841 97.4274 356.932 99.4805C356.743 99.5792 356.557 99.6818 356.368 99.7824C355.963 99.9236 355.557 100.063 355.153 100.204C348.131 102.66 341.152 105.208 334.225 107.871C320.373 113.198 306.679 118.847 293.186 124.859C279.595 130.916 266.332 137.476 253.024 144.005C246.536 147.189 240.007 150.368 233.254 153.083C226.799 155.678 220.133 157.764 213.358 159.583C199.539 163.295 185.049 166.155 172.486 172.697C172.149 172.701 171.817 172.705 171.482 172.705ZM173.746 172.637C185.047 167.409 197.382 164.587 209.623 161.57C216.224 159.943 222.792 158.227 229.163 155.972C236.042 153.54 242.754 150.697 249.283 147.597C262.506 141.316 275.515 134.709 288.897 128.685C302.511 122.555 316.323 116.761 330.336 111.385C335.103 109.557 339.896 107.778 344.698 106.023C341.706 107.649 338.716 109.282 335.752 110.946C321.571 118.905 307.428 126.918 292.99 134.506C267.202 148.059 240.172 160.313 211.103 167.19C198.822 170.095 186.355 171.828 173.746 172.637ZM350.877 108.316C343.157 113.93 335.298 119.393 327.229 124.604C311.181 134.965 294.344 144.416 276.477 152.094C259.314 159.471 241.261 165.081 222.584 168.492C213.304 170.187 203.946 171.294 194.544 171.952C198.44 171.352 202.31 170.648 206.134 169.843C220.261 166.867 234.006 162.567 247.323 157.443C261.263 152.079 274.719 145.788 287.875 139.046C302.485 131.561 316.619 123.397 331.07 115.681C339.107 111.391 347.092 107.022 355.175 102.799C356.3 102.211 357.443 101.656 358.575 101.079C360.013 100.585 361.45 100.092 362.89 99.6024C358.862 102.482 354.875 105.408 350.877 108.316ZM386.845 83.4365C362.934 92.1735 338.896 100.642 314.879 109.133C283.423 120.254 252.101 131.692 221.786 145.132C204.543 152.777 187.643 161.058 171.33 170.164C174.444 167.362 177.625 164.62 180.967 162.006C188.035 156.475 195.531 151.39 203.326 146.701C219.066 137.236 235.998 129.482 253.404 122.764C270.704 116.086 288.49 110.514 306.348 105.154C323.73 99.9372 341.132 94.6988 358.712 90.0256C367.992 87.5602 377.376 85.3213 386.845 83.4365ZM178.188 157.47C182.963 149.64 187.337 141.561 194.168 134.937C201.458 127.87 210.703 122.605 220.05 117.967C228.715 113.667 237.569 109.63 246.499 105.785C263.723 98.3697 281.55 91.8329 300.147 87.6976C309.408 85.6387 318.842 84.1738 328.358 83.4926C337.223 82.8579 346.123 82.9547 355.007 83.0669C362.327 83.1598 369.724 83.2546 377.083 82.9798C372.872 83.9551 368.674 84.9865 364.492 86.0683C346.829 90.6351 329.427 95.9857 312.019 101.259C293.94 106.735 275.945 112.455 258.341 119.062C240.87 125.618 223.853 133.178 207.865 142.279C194.023 150.161 180.728 159.248 169.31 169.847C172.769 166.056 175.58 161.743 178.188 157.47ZM89.9797 225.607C88.5674 229.059 86.1969 232.101 83.6157 234.938C80.6868 238.158 77.3886 241.198 74.4901 244.476C77.9861 231.865 82.1686 219.401 86.9487 207.134C93.0737 191.419 100.055 175.991 107.364 160.686C114.769 145.18 122.441 129.759 130.311 114.435C138.417 98.6503 147.041 83.005 158.611 68.9638C164.134 62.2606 170.294 55.9754 177.169 50.3442C181.095 47.13 185.251 44.2738 189.584 41.6227C176.762 50.8415 170.324 65.62 164.934 79.1948C161.62 87.537 158.296 95.8444 153.733 103.724C149.133 111.668 143.684 119.199 138.007 126.56C127.284 140.458 115.647 153.903 106.597 168.757C102.358 175.716 98.6969 182.986 96.1417 190.58C94.8793 194.33 93.8712 198.158 93.1867 202.026C92.4871 205.981 92.2611 209.95 92.0417 213.944C91.8222 217.878 91.505 221.878 89.9797 225.607ZM175.858 68.3311C169.086 84.3441 165.001 101.29 156.112 116.564C146.806 132.553 131.621 144.977 121.398 160.442C111.477 175.453 105.745 192.209 98.9967 208.454C97.5584 211.918 96.0244 215.392 94.41 218.844C94.7968 215.541 94.838 212.21 95.0857 208.899C95.3747 205.014 96.0113 201.153 96.95 197.351C98.8359 189.711 101.971 182.319 105.739 175.267C113.765 160.245 124.711 146.804 135.341 133.2C140.931 126.046 146.383 118.781 151.204 111.19C156.001 103.637 159.973 95.7844 163.263 87.6202C169.757 71.495 175.213 53.6107 190.54 42.12C191.507 41.3943 192.5 40.6977 193.519 40.034C185.731 48.2853 180.126 58.2453 175.858 68.3311ZM66.2118 155.465C71.1853 136.855 79.6613 118.953 91.4225 102.935C104.118 85.6464 120.498 70.6048 139.33 58.5607C143.664 55.7877 148.145 53.1869 152.729 50.7429C151.36 51.6659 150.007 52.6025 148.688 53.5642C131.795 65.9064 118.484 81.7375 106.021 97.5783C94.0254 112.825 82.7814 128.672 74.4423 145.792C67.1092 160.849 62.1335 176.947 61.1319 193.384C61.0667 194.463 61.0602 195.547 61.0298 196.629C60.8799 182.787 62.6159 168.92 66.2118 155.465ZM73.0213 154.647C80.274 137.254 90.8336 121.14 102.401 105.77C108.364 97.8473 114.534 90.0198 120.972 82.3974C127.621 74.5273 134.778 66.9533 142.789 60.1513C151.058 53.1288 160.432 46.9036 170.674 42.298C174.655 40.659 178.705 39.1574 182.805 37.7718C185.36 37.0133 187.961 36.3689 190.601 35.8386C178.898 42.3948 167.986 50.1023 157.974 58.553C142.954 71.2318 129.794 85.6522 118.667 101.183C107.703 116.488 98.7251 132.85 91.3964 149.78C84.2002 166.404 78.6705 183.561 74.4597 200.973C72.2 210.32 70.3097 219.742 68.7366 229.204C68.276 227.747 67.7849 226.311 67.3482 224.916C64.956 217.29 63.7197 209.375 63.5241 201.463C63.1222 185.492 66.7941 169.576 73.0213 154.647ZM64.3932 226.658C63.7262 223.594 63.1939 220.512 62.7245 217.42C63.4807 221.108 64.5301 224.719 65.7034 228.32C66.5247 230.836 67.3743 233.46 67.6611 236.103C67.5481 236.86 67.4177 237.614 67.3091 238.371C66.34 234.468 65.2471 230.588 64.3932 226.658ZM69.2494 251.092C70.9963 236.761 73.2451 222.478 76.3825 208.332C80.2153 191.052 85.254 173.947 91.8396 157.332C98.4905 140.551 106.79 124.265 117.002 108.961C127.486 93.2514 139.877 78.4768 154.22 65.3897C161.34 58.8935 168.929 52.8018 176.966 47.219C183.502 42.6793 190.346 38.6 197.373 34.7337C198.038 34.6505 198.705 34.5634 199.37 34.4918C198.794 34.9678 198.218 35.4458 197.662 35.9393C184.013 42.4528 172.347 51.8381 162.533 62.5393C150.202 75.9805 140.946 91.3937 132.46 106.946C124.062 122.332 116.155 137.972 108.348 153.602C100.62 169.077 93.278 184.712 86.7662 200.629C80.3196 216.382 74.766 232.424 70.5747 248.776C70.4596 249.223 70.3553 249.67 70.2445 250.117C69.8751 250.731 69.534 251.363 69.2146 252.006C69.2255 251.702 69.2515 251.398 69.2494 251.092ZM126.686 201.445C119.59 206.664 112.687 212.096 106.045 217.764C112.146 212.448 118.486 207.345 125.031 202.457C125.704 202.035 126.371 201.606 127.047 201.186L126.686 201.445ZM16.336 146.194C17.8004 152.301 19.6559 158.331 21.7222 164.297C25.8635 176.248 30.9044 187.927 35.6128 199.706C44.7644 222.596 52.7776 246.632 49.5858 271.19C49.0187 275.548 48.0801 279.86 46.7634 284.084C46.7895 283.765 46.8416 283.449 46.8633 283.13C47.6716 271.026 46.2267 258.873 43.4803 247.021C37.4183 220.876 25.3834 196.197 19.0367 170.114C16.6293 160.22 15.0649 150.116 14.9628 139.994C15.3734 142.088 15.8493 144.162 16.336 146.194ZM23.7516 251.212C16.5641 237.907 9.43307 224.612 5.86756 210.105C2.72139 197.3 1.92399 184.074 3.43624 171.039C4.18801 164.568 5.49167 158.145 7.3798 151.86C8.08378 149.519 8.89423 147.22 9.75247 144.934C8.81166 154.42 9.34834 164.047 10.6563 173.46C12.5445 187.06 16.1687 200.393 20.0079 213.644C23.8146 226.787 28.058 239.832 31.2455 253.113C33.0228 260.516 34.5264 268.003 35.5476 275.537C32.3123 267.2 28.0493 259.166 23.7516 251.212ZM40.1777 291.788C40.0604 291.101 39.8866 290.429 39.7497 289.748C39.326 279.316 37.6638 268.93 35.3042 258.709C32.2428 245.446 27.9798 232.436 23.8711 219.409C19.6864 206.138 15.7471 192.774 13.2854 179.151C10.9366 166.155 10.1371 152.984 11.7492 139.886C11.9404 139.429 12.149 138.974 12.3424 138.517C12.69 138.21 12.7791 137.786 12.8443 137.362C13.2528 136.416 13.6504 135.468 14.0763 134.525C12.538 157.458 19.3431 180.089 26.7957 201.9C35.1847 226.453 44.8166 251.454 44.206 277.451C44.0626 283.542 43.3456 289.626 41.9681 295.598C41.6031 296.287 41.2532 296.98 40.8621 297.657C40.7122 295.693 40.508 293.731 40.1777 291.788ZM52.556 287.405C56.6082 283.589 61.4969 280.396 66.4834 277.673C75.6329 272.679 85.4734 268.694 95.4855 265.286C115.558 258.455 136.49 253.976 157.012 248.401C177.599 242.806 197.762 235.913 215.574 224.965C235.047 212.996 252.09 197.691 274.55 190.046C285.362 186.365 296.886 184.36 308.469 184.022C299.793 184.782 291.206 186.767 283.121 189.581C262.38 196.799 244.674 209.397 227.54 221.76C210.032 234.392 192.243 247.267 171.137 254.835C150.824 262.121 128.95 264.599 107.662 268.617C88.2241 272.284 68.3433 277.516 52.1714 288.146C52.2974 287.898 52.4321 287.654 52.556 287.405ZM54.7722 294.688C54.2486 294.785 53.7358 294.907 53.2165 295.016L53.1709 295.012C53.6923 294.741 54.2073 294.462 54.7353 294.201C59.2829 291.95 64.0325 290.025 68.8909 288.372C78.8834 284.972 89.3409 282.743 99.855 281.061C120.903 277.698 142.335 276.684 163.33 273.015C173.746 271.194 184.078 268.727 193.873 265.045C204.243 261.145 213.71 255.748 222.438 249.442C240.405 236.461 255.462 220.479 274.85 209.037C281.285 205.238 288.025 202.028 294.983 199.282C289.892 202.101 284.986 205.19 280.253 208.456C271.771 214.31 263.971 220.88 256.214 227.467C247.794 234.615 239.575 241.949 231.027 248.977C214.169 262.84 195.904 275.666 173.918 282.323C154.935 288.07 134.728 289.363 114.836 290.133C94.7816 290.915 74.4966 291.037 54.7722 294.688ZM187.196 288.479C177.564 293.347 167.222 297.03 156.382 299.102C145.835 301.117 135.013 301.755 124.244 301.581C113.357 301.405 102.508 300.449 91.7049 299.286C84.4001 298.501 77.1039 297.669 69.8056 296.84C80.828 296.062 92.0156 296.409 102.997 296.792C113.346 297.152 123.716 297.531 134.067 297.04C144.794 296.531 155.356 294.905 165.549 291.85C187.289 285.332 206.336 273.278 223.716 260.214C232.707 253.457 241.359 246.355 250.054 239.296C246.384 242.702 242.734 246.127 239.062 249.529C223.42 264.021 206.972 278.484 187.196 288.479ZM312.456 194.622C302.963 198.663 294.096 203.825 285.79 209.559C285.425 209.813 285.075 210.08 284.712 210.335C284.008 210.803 283.287 211.25 282.589 211.725C264.075 224.297 247.688 239.027 230.388 252.848C213.145 266.622 194.414 279.676 172.912 287.728C162.626 291.581 151.825 294.094 140.723 295.105C130.348 296.047 119.899 295.875 109.491 295.546C94.0015 295.056 78.1773 294.133 62.7788 296.053C60.7908 295.83 58.8049 295.602 56.8168 295.385C63.7609 294.383 70.7268 293.553 77.7579 293.057C87.8526 292.347 97.969 292.022 108.085 291.693C127.892 291.047 147.951 290.321 167.183 285.665C177.562 283.153 187.452 279.43 196.739 274.596C206.644 269.441 215.792 263.216 224.474 256.557C233.335 249.761 241.7 242.479 250.102 235.244C257.941 228.492 265.876 221.93 274.296 215.753C287.102 206.36 301.136 197.705 316.688 192.395C318.105 192.044 319.52 191.688 320.949 191.369C318.057 192.362 315.213 193.447 312.456 194.622ZM325.399 187.17C320.228 188.021 315.111 189.159 310.101 190.549C299.947 193.366 290.137 197.163 280.907 201.867C271.223 206.804 262.337 212.733 253.998 219.322C245.137 226.323 236.818 233.847 227.994 240.887C219.329 247.801 210.121 254.264 199.735 259.013C190.264 263.344 180.1 266.335 169.751 268.495C148.675 272.893 127.004 273.983 105.687 277.073C95.0727 278.612 84.5239 280.628 74.3163 283.678C66.5334 286.002 58.7766 288.951 51.7347 292.827C51.3349 292.579 50.6765 292.612 50.3897 293.125C50.2659 293.346 50.1551 293.574 50.0312 293.794C49.7879 293.936 49.538 294.069 49.2968 294.212C49.6488 293.452 50.0095 292.693 50.368 291.937C64.969 281.282 83.3245 275.55 101.554 271.707C122.239 267.345 143.504 265.112 163.739 259.117C174.111 256.044 183.902 251.834 193.175 246.69C202.616 241.456 211.459 235.424 220.126 229.235C237.689 216.696 254.784 203.189 275.084 194.2C291.96 186.727 311.296 182.673 330.058 185.895C330.303 185.937 330.544 185.995 330.79 186.042C328.978 186.351 327.183 186.74 325.399 187.17Z" fill="#5F5C7C"/>
</svg>
