<svg width="539" height="390" viewBox="0 0 539 390" fill="none" xmlns="http://www.w3.org/2000/svg">
<path d="M303.062 243.89C307.995 260.145 317.016 274.769 327.566 287.923C334.233 296.235 343.927 304.753 354.571 301.736C361.784 299.69 366.872 292.558 368.332 285.273C369.793 277.987 368.241 270.577 366.097 263.628C358.367 238.571 342.443 215.868 321.301 200.507C293.548 180.34 298.611 229.225 303.062 243.89Z" fill="#FFE7C5"/>
<path d="M383.586 178.874C394.415 179.921 405.843 179.921 415.921 175.236C425.999 170.552 434.259 160.044 433.122 149.296C432.16 140.199 424.583 132.938 415.76 130.55C406.937 128.162 397.201 130.034 388.623 133.891C379.419 138.027 353.373 151.529 351.985 162.534C350.273 176.099 374.483 177.994 383.586 178.874Z" fill="#FFE7C5"/>
<path d="M254.88 271.788C256.425 280.1 260.129 289.949 268.641 290.688C273.391 291.1 278.12 288.193 281.055 284.299C283.991 280.404 285.425 275.651 286.507 270.967C292.402 245.417 288.921 218.396 277.563 195.606C273.722 187.898 266.589 173.308 256.119 183.268C247.977 191.013 250.503 211.937 250.45 221.919C250.363 238.701 251.84 255.422 254.88 271.788Z" fill="#FFE7C5"/>
<path d="M232.09 63.0487C238.15 60.9656 244.649 57.7705 247.068 51.856C249.672 45.4871 246.238 38.1432 240.723 34.4246C235.207 30.7046 228.146 29.8871 221.344 29.7962C208.679 29.6259 151.075 35.7515 161.093 57.915C170.033 77.6952 216.004 68.5768 232.09 63.0487Z" fill="#FFE7C5"/>
<path d="M183.4 180.328C186.11 184.452 189.082 188.572 193.285 191.187C197.487 193.803 203.214 194.629 207.656 192.008C211.989 189.453 214.16 184.173 214.164 179.27C214.168 174.365 212.36 169.734 210.403 165.32C205.077 153.306 198.299 141.872 189.725 131.948C185.361 126.894 167.671 106.569 159.558 110.323C146.061 116.572 177.912 171.977 183.4 180.328Z" fill="#CEBBB6"/>
<path d="M288.377 152.916C301.935 155.385 316.615 154.682 329.284 148.402C331.82 147.145 334.41 145.514 335.603 142.96C337.215 139.515 335.663 135.374 332.874 132.997C330.085 130.621 326.338 129.654 322.673 128.979C304.338 125.603 285.254 128.015 267.04 132.875C257.574 135.401 248.14 138.32 260.729 144.239C269.308 148.272 278.971 151.203 288.377 152.916Z" fill="#CEBBB6"/>
<path d="M382.735 198.238C388.052 218.854 396.219 238.624 406.941 256.834C413.136 267.356 420.701 277.8 431.945 282.764C437.031 285.008 444.156 285.477 447.507 280.793C450.296 276.891 448.859 271.655 447.042 267.419C442.092 255.87 435.088 245.269 426.436 236.228C431.589 238.613 436.933 241.044 442.712 241.111C448.492 241.178 454.866 238.224 457.015 232.79C458.88 228.075 457.093 222.705 453.82 219.073C450.547 215.44 446.011 213.204 441.551 211.115C427.686 204.615 413.038 198.66 397.44 198.579" fill="#CEBBB6"/>
<path d="M67.7142 94.3496C80.767 83.2906 88.9764 67.1102 90.4072 50.4859C90.4597 49.8816 90.4762 49.2757 90.5094 48.6718C93.3805 62.0398 96.5074 75.3965 101.56 88.0387C104.665 95.8072 108.503 103.279 113.363 110.057C113.873 110.768 114.898 110.464 115.152 109.657C117.919 100.803 117.772 91.4422 115.715 82.6758C113.394 72.7799 108.565 63.7524 102.755 55.5911C99.2101 50.611 95.2841 45.9197 91.2364 41.3459C91.0909 41.1814 90.9156 41.1014 90.7333 41.0558C90.5676 40.308 90.3981 39.5587 90.231 38.8121C90.1397 38.0113 90.0523 37.2095 89.9258 36.4135C89.8812 36.1331 89.7364 35.9327 89.551 35.7958C89.1804 34.1675 88.7966 32.5438 88.3957 30.9231C88.3864 30.7739 88.3953 30.623 88.3796 30.4747C88.3642 30.3355 88.2939 30.2347 88.1999 30.1662C87.5202 27.4641 86.7954 24.7779 85.9453 22.1371C84.6653 18.1591 83.0299 14.2671 80.7341 10.792C79.7539 9.31109 78.6305 7.93123 77.4056 6.64671C79.2648 7.64267 81.1018 8.68375 82.9276 9.7487C82.9496 9.7882 82.9717 9.82773 83.0021 9.85993C83.7065 10.6418 84.8836 11.1276 85.9349 11.5421C95.5957 17.4252 104.776 24.1696 113.594 31.2524C114.186 31.8687 114.902 32.4036 115.635 32.8931C115.789 33.0195 115.947 33.141 116.101 33.2675C126.543 41.783 136.725 50.6135 146.907 59.435C148.099 76.0069 152.059 92.3192 157.458 107.808C157.816 108.837 158.205 109.853 158.578 110.876C158.314 110.892 158.043 110.992 157.803 111.231C151.749 117.231 147.347 124.997 143.781 132.589C141.96 136.463 140.321 140.415 138.731 144.378C137.326 147.878 135.764 151.404 134.885 155.06C134.02 158.655 133.965 162.486 136.02 165.567C136.423 166.172 137.212 166.108 137.714 165.625C137.888 165.457 138.054 165.283 138.225 165.115C138.545 165.101 138.858 164.919 138.946 164.502C138.956 164.456 138.968 164.411 138.977 164.365C149.515 153.739 156.879 139.836 159.286 125.329C159.869 121.815 160.181 118.285 160.025 114.768C165.462 128.845 172.314 142.346 180.505 154.941C185.91 163.251 191.913 171.064 198.419 178.525C199.042 179.239 200.156 178.888 200.21 177.881C200.746 167.762 199.107 157.613 195.426 148.355C191.507 138.499 185.3 129.717 177.36 122.75C172.793 118.741 167.667 115.353 162.166 112.686C161.915 112.564 161.679 112.567 161.463 112.624C158.054 103.65 155.208 94.4449 152.958 85.0628C151.032 77.0272 149.586 68.8677 148.332 60.6749C151.081 63.0565 153.829 65.4393 156.584 67.811C171.122 80.3253 185.661 92.8371 200.199 105.352C204.489 109.044 208.772 112.772 213.058 116.503C215.916 120.944 218.677 125.446 221.095 130.158C223.489 134.822 225.574 139.647 227.405 144.575C226.962 144.651 226.537 144.931 226.361 145.462C220.761 162.357 220.593 181.094 226.254 197.489C227.983 202.499 230.659 207.401 235.511 209.925C236.042 210.202 236.885 209.812 236.964 209.175C237.042 208.527 237.095 207.878 237.166 207.23C238.918 203.846 240.191 200.15 241.14 196.529C242.224 192.388 242.839 188.149 243.011 183.916C243.377 174.949 241.491 166.154 237.814 158.16C236.743 155.833 235.52 153.596 234.123 151.456C233.417 150.376 232.671 149.32 231.888 148.295C231.22 147.422 230.558 146.513 229.76 145.753C228.009 140.954 225.992 136.258 223.695 131.698C221.658 127.655 219.438 123.677 216.952 119.887C224.332 126.3 231.748 132.695 239.304 138.92C239.367 138.995 239.432 139.07 239.494 139.144C239.522 139.437 239.669 139.716 240.019 139.883C240.073 139.909 240.13 139.932 240.184 139.958C241.49 141.524 242.761 143.12 243.953 144.774C246.207 147.901 248.209 151.211 250.009 154.627C253.627 161.498 256.332 168.866 258.346 176.409C262.509 192.001 263.575 208.276 263.888 224.513C264.046 232.75 264.012 240.997 264.133 249.236C264.193 253.381 264.286 257.524 264.45 261.66C264.558 264.355 264.222 269.062 267.299 270.283C270.951 271.732 272.979 266.026 274.11 263.58C275.646 260.262 276.933 256.833 277.97 253.347C280.031 246.413 281.069 239.213 281.045 232.076C280.992 216.68 275.753 201.621 266.435 189.743C265.282 188.276 264.067 186.864 262.804 185.49C262.676 185.352 262.539 185.282 262.399 185.243C261.982 183.1 261.527 180.962 261.007 178.839C257.915 166.213 252.874 153.988 245.135 143.659C245.784 144.179 246.426 144.708 247.077 145.225C249.833 149.128 253.258 152.581 256.732 155.83C260.816 159.647 265.172 163.171 269.619 166.567C278.616 173.433 287.995 179.829 296.625 187.152C301.797 191.54 306.612 196.308 311.02 201.427C309.752 212.413 310.191 223.45 312.319 234.15C313.398 239.577 314.921 244.886 316.878 250.029C318.861 255.233 321.175 260.409 324.285 265.013C327.709 270.085 332.324 274.577 338.347 276.44C338.97 276.633 339.711 276.397 339.865 275.657C341.951 265.517 340.595 255.204 337.749 245.572C335.27 237.183 331.746 229.111 327.489 221.504C329.311 223.185 331.203 224.79 333.16 226.317C340.952 232.392 349.753 237.244 359.158 240.57C364.478 242.452 369.98 243.855 375.599 244.737C376.404 244.863 377.135 243.897 376.635 243.209C376.303 242.75 375.948 242.311 375.607 241.862C375.588 241.801 375.555 241.74 375.487 241.69C375.478 241.683 375.468 241.677 375.46 241.671C363.473 225.99 346.179 215.451 328.311 207.24C323.406 204.986 318.406 202.679 313.263 200.933C313.232 200.34 312.791 199.958 312.293 199.882C309.048 196.15 305.597 192.599 301.93 189.277C293.465 181.61 284.039 175.081 274.851 168.299C266.855 162.398 259.11 156.232 252.139 149.193C263.485 157.958 275.24 166.168 287.729 173.308C311.921 187.137 339.743 196.761 368.439 196.435C368.358 196.636 368.397 196.879 368.645 197.011C374.786 200.272 380.873 203.585 386.641 207.448C388.06 208.398 389.453 209.381 390.832 210.382C390.795 210.515 390.785 210.653 390.796 210.788C390.63 211.013 390.564 211.305 390.704 211.646C398.561 230.766 409.626 248.488 423.181 263.967C426.532 267.793 430.17 271.836 435.221 273.432C435.854 273.632 436.671 273.262 436.613 272.482C435.575 258.921 428.292 246.927 420.293 236.546C414.926 229.584 408.876 223.151 402.259 217.349C405.536 219.065 408.944 220.571 412.45 221.804C419.939 224.435 427.867 226.105 435.904 226.509C437.871 226.608 439.844 226.649 441.82 226.614C443.685 226.581 445.781 226.402 447.026 224.749C448.33 223.019 447.599 221.155 445.971 220.122C444.352 219.094 442.537 218.287 440.793 217.475C433.734 214.191 426.206 211.861 418.465 210.475C409.951 208.948 401.18 208.636 392.468 209.551C391.613 208.931 390.765 208.3 389.897 207.698C383.589 203.333 376.871 199.341 369.713 196.416C372.385 196.358 375.058 196.245 377.741 196.008C386.915 195.198 395.86 193.294 404.595 190.612C404.685 190.778 404.855 190.905 405.114 190.903C410.598 190.888 416.099 190.366 421.59 190.236C423.222 190.198 424.849 190.178 426.477 190.17C441.175 197.115 453.708 211.469 471.573 210.18C475.773 209.877 479.919 208.637 483.52 206.288C484.074 205.926 484.124 205.11 483.648 204.71C475.854 198.157 466.347 193.834 456.375 191.329C447.418 189.08 438.103 188.304 428.777 188.279C428.303 188.048 427.826 187.833 427.33 187.678C426.978 187.567 426.684 187.789 426.61 188.072C426.44 188.102 426.283 188.18 426.15 188.289C425.446 188.297 424.745 188.299 424.043 188.315C419.048 188.429 413.97 188.644 408.958 189.222C430.432 181.928 450.574 169.967 469.439 157.284C472.973 154.909 476.402 152.44 479.778 149.843C480.217 149.506 479.797 148.878 479.323 149.161C464.703 157.912 450.678 167.53 435.508 175.327C426.479 179.968 417.107 184.058 407.481 187.223C408.983 185.941 410.471 184.638 412.013 183.406C414.901 181.094 417.879 178.888 420.901 176.762C426.891 172.548 433.087 168.649 439.217 164.646C450.322 157.395 461.353 149.61 470.034 139.453C474.681 134.016 478.567 127.929 481.108 121.301C481.38 120.593 480.795 119.55 479.924 119.962C464 127.492 449.957 139.098 439.564 153.351C436.648 157.351 434.011 161.546 431.689 165.895C431.395 166.447 431.646 166.917 432.052 167.15C428.554 169.431 425.065 171.721 421.637 174.102C418.31 176.412 415.038 178.802 411.904 181.374C409.337 183.481 406.718 185.65 404.523 188.159C398.998 189.853 393.398 191.249 387.725 192.218C363.758 196.314 339.86 192.693 317.77 184.577C323.957 182.836 330.061 180.459 335.999 177.974C342.238 175.365 348.36 172.423 354.234 169.024C356.713 167.59 359.137 166.057 361.508 164.446C361.834 164.572 362.205 164.561 362.497 164.396C367.708 168.356 373.966 171.015 380.357 172.643C387.151 174.374 394.367 174.837 401.447 174.03C405.517 173.567 409.551 172.677 413.458 171.331C414.14 171.098 414.513 169.997 413.842 169.57C402.154 162.145 388.39 158.343 374.187 158.947C372.22 159.03 370.254 159.197 368.295 159.452C368.286 159.453 368.278 159.455 368.269 159.456C373.658 155.149 378.611 150.308 382.899 144.878C390.071 135.796 395.446 125.168 397.393 113.9C397.634 112.5 397.823 111.094 397.956 109.686C398.085 108.315 398.151 106.868 397.463 105.657C396.862 104.598 395.635 104.08 394.41 104.429C393.034 104.82 392.099 106.091 391.224 107.138C386.697 112.548 382.269 118.052 378.198 123.805C370.685 134.417 364.334 146.069 361.618 158.699C361.543 159.051 361.498 159.406 361.431 159.759C361.418 159.781 361.4 159.79 361.388 159.814C361.059 160.516 360.731 161.216 360.402 161.918C360.287 162.018 360.222 162.169 360.211 162.329C360.143 162.472 360.077 162.614 360.01 162.757C359.926 162.937 359.929 163.113 359.969 163.281C358.727 164.126 357.475 164.958 356.197 165.752C345.072 172.666 332.966 177.692 320.714 182.022C319.215 182.551 317.721 183.082 316.239 183.665C316.109 183.716 316.02 183.792 315.946 183.874C309.152 181.292 302.527 178.306 296.14 174.975C279.421 166.26 264.107 155.427 249.431 143.75C251.97 144.653 254.535 145.491 257.098 146.262C262.939 148.017 268.901 149.414 274.944 150.453C286.922 152.512 299.215 153.159 311.478 152.342C318.422 151.879 325.315 150.888 332.141 149.307C332.632 149.193 332.487 148.375 331.99 148.455C331.958 148.46 331.925 148.465 331.89 148.47C331.813 148.285 331.706 148.113 331.516 147.907C331.144 147.498 330.763 147.097 330.365 146.713C329.544 145.918 328.662 145.19 327.755 144.491C325.984 143.124 324.106 141.9 322.131 140.831C320.569 139.984 318.937 139.255 317.278 138.591C317.257 138.519 317.208 138.448 317.131 138.428C316.991 138.391 316.837 138.381 316.692 138.352C314.367 137.461 311.972 136.731 309.525 136.204C305.067 135.245 300.427 134.913 295.818 135.249C290.803 135.614 285.939 136.921 281.171 138.639C275.344 140.741 269.625 143.354 263.544 144.53C262.974 144.641 262.518 145.03 262.411 145.586C261.581 145.36 260.745 145.143 259.918 144.902C254.354 143.284 248.999 141.248 243.665 139.098C231.801 129.39 220.296 119.23 208.748 109.299C207.734 108.427 206.725 107.549 205.711 106.677C206.675 107 207.65 107.293 208.638 107.54C212.546 108.515 216.602 108.856 220.669 108.919C220.948 109.256 221.418 109.406 221.915 109.045C221.97 109.004 222.026 108.967 222.08 108.927C222.933 108.927 223.787 108.921 224.639 108.903C230.003 108.794 235.383 108.538 240.748 108.181C245.94 107.835 251.136 107.353 256.28 106.383C261.962 105.311 267.576 103.728 272.739 100.95C273.059 100.778 272.912 100.349 272.629 100.269C272.625 100.253 272.632 100.236 272.623 100.223C272.268 99.5365 271.576 99.2618 270.854 98.9884C269.999 98.6638 269.135 98.3658 268.257 98.1017C266.539 97.5856 264.792 97.1657 263.015 96.861C259.563 96.2667 256.025 96.0289 252.492 96.1427C245.322 96.3745 238.098 98.0454 231.461 101.046C227.83 102.686 224.206 104.708 221.078 107.228C217.948 107.146 214.831 106.918 211.773 106.336C208.992 105.807 206.28 105.001 203.732 103.829C202.49 103.257 201.275 102.609 200.138 101.856C200.104 101.834 200.076 101.807 200.042 101.785C182.93 87.0112 165.863 72.1768 148.692 57.4658C148.726 57.3096 148.737 57.1473 148.696 56.9786C148.49 56.1302 148.104 55.3555 147.591 54.6697C154.768 56.7957 162.393 56.7943 169.93 56.7412C185.628 56.6294 201.272 57.7054 216.991 57.0842C221.393 56.9095 225.797 56.6015 230.186 56.0876C234.525 55.5804 238.853 54.8969 243.067 53.6116C243.134 53.5904 243.176 53.5449 243.209 53.4951C243.6 53.5211 244.026 53.0804 243.718 52.7313C240.104 48.6535 235.371 45.6703 230.374 43.4522C225.327 41.2098 219.877 39.7889 214.324 39.143C202.489 37.7646 190.381 40.0367 179.163 44.5717C175.913 45.8852 172.738 47.3881 169.63 49.0263C168.1 49.8336 166.59 50.6765 165.098 51.5562C163.611 52.431 162.046 53.2662 160.783 54.4503C157.291 54.271 153.825 53.907 150.43 53.1011C146.321 52.1287 142.421 50.4451 138.899 48.2148C137.116 47.0864 135.429 45.8189 133.86 44.4183C132.844 43.5129 131.898 42.5351 130.934 41.5796C131.212 41.5591 131.446 41.2314 131.174 41.0238C128.773 39.1869 126.128 37.6747 123.537 36.0995C114.86 28.8282 105.849 21.6338 96.3728 15.1231C96.922 15.2769 97.4671 15.4485 98.0201 15.5897C100.665 16.2708 103.344 16.8406 106.054 17.2592C107.907 17.5444 109.886 17.8777 111.834 17.9401C111.986 18.164 112.236 18.3244 112.591 18.3217C112.965 18.3173 113.338 18.3334 113.713 18.3367C116.051 20.0592 118.508 21.6383 120.965 23.1688C124.592 25.4297 128.32 27.5567 132.153 29.4795C139.883 33.359 147.967 36.5636 156.296 39.0845C161.001 40.5093 165.791 41.6827 170.636 42.6368C171.428 42.793 172.071 41.6403 171.383 41.1517C157.61 31.3652 143.307 21.3693 126.276 17.7583C128.585 17.762 130.895 17.7092 133.208 17.5758C141.571 17.0956 149.908 15.6496 158.058 13.4343C166.985 11.0077 175.687 7.74709 184.319 4.35243C193.973 0.555144 203.611 -3.41346 213.483 -6.54642C213.504 -6.49925 213.538 -6.46305 213.558 -6.41467C213.825 -5.76608 214.845 -6.10849 214.634 -6.79556C214.05 -8.69409 212.392 -9.78716 210.593 -10.4417C208.862 -11.0725 207.018 -11.488 205.203 -11.8534C201.471 -12.6031 197.633 -12.9191 193.793 -12.9132C186.024 -12.9043 178.2 -11.5293 170.688 -9.23688C162.105 -6.61721 153.875 -2.87933 145.851 1.2119C138.121 5.15267 130.6 9.87527 122.344 12.5653C118.114 13.9422 113.577 14.6287 109.195 14.3118C107.272 14.0081 105.36 13.6497 103.455 13.2519C101.684 12.7025 99.9766 11.9548 98.3748 10.958C97.8325 10.6197 97.2893 11.4769 97.7005 11.8962C93.8532 10.8872 90.064 9.69621 86.3576 8.30641C86.1451 8.22597 85.9463 8.23213 85.7587 8.27085C73.0594 0.637869 59.4885 -5.45806 44.7174 -8.61878C41.0233 -9.40901 37.2973 -9.96728 33.5152 -10.3101C32.0044 -10.4472 31.4711 -8.15047 33.0058 -7.96614C47.065 -6.27769 60.0715 -1.93959 72.2835 4.03278C74.9542 6.02722 77.2978 8.57592 79.1387 11.3128C81.2431 14.4404 82.7657 17.9142 83.97 21.5026C85.1785 25.1015 86.1516 28.7972 87.0211 32.5265C86.7177 33.9169 86.3955 35.3025 85.9214 36.6605C85.2317 38.6332 84.3373 40.5514 83.3645 42.4134C81.35 46.2701 78.9213 49.9049 76.762 53.6856C72.3114 61.4768 69.2077 69.9747 67.5751 78.6771C66.6442 83.636 66.1959 88.6636 66.2251 93.6633C66.2365 94.327 67.1427 94.8348 67.7142 94.3496ZM162.527 115.398C162.644 115.456 162.754 115.524 162.871 115.584C175.035 129.262 185.442 144.386 192.986 161.177C194.32 164.146 195.517 167.166 196.656 170.212C196.433 169.843 196.209 169.474 195.996 169.105C194.882 167.168 193.76 165.235 192.634 163.304C190.325 159.345 187.978 155.412 185.63 151.478C180.934 143.607 176.11 135.816 171.082 128.159C168.375 124.037 165.653 119.927 162.748 115.947C162.679 115.763 162.6 115.581 162.527 115.398ZM136.996 155.551C137.808 152.132 139.266 148.851 140.582 145.582C143.616 138.042 146.882 130.522 151.18 123.549C153.391 119.963 155.946 116.678 158.715 113.505C158.677 113.964 158.63 114.42 158.589 114.878C150.458 126.186 144.354 138.968 140.381 152.125C139.333 155.597 138.403 159.128 137.72 162.681C137.549 162.853 137.386 163.032 137.213 163.204C136.184 160.843 136.386 158.123 136.996 155.551ZM139.845 160.434C141.143 154.715 142.662 149.064 144.707 143.505C147.196 136.741 150.28 130.189 153.825 123.868C154.823 122.091 155.884 120.345 156.983 118.619C156.491 119.542 156.016 120.474 155.552 121.419C154.307 123.95 153.141 126.515 152.054 129.11C149.918 134.21 148.105 139.434 146.622 144.732C145.769 147.779 145.028 150.849 144.393 153.939C144.33 154.238 144.442 154.457 144.618 154.605C144.615 154.607 144.615 154.61 144.612 154.612C143.133 156.639 141.533 158.577 139.845 160.434ZM154.868 134.618C152.846 140.783 149.945 146.737 146.303 152.189C148.431 142.192 151.681 132.377 156.031 123.023C156.73 121.519 157.477 120.039 158.207 118.552C157.568 123.971 156.6 129.333 154.868 134.618ZM163.972 118.932C168.134 125.648 172.429 132.283 176.611 138.986C181.404 146.665 186.074 154.42 190.56 162.29C191.834 164.525 193.096 166.768 194.345 169.017C194.944 170.093 195.538 171.17 196.13 172.249C196.35 172.649 196.564 173.057 196.778 173.464C186.811 161.391 178.149 148.15 171.008 134.201C168.457 129.213 166.123 124.113 163.972 118.932ZM185.36 134.49C191.278 142.397 195.295 151.63 197.192 161.431C197.718 164.154 198.035 166.917 198.203 169.698C195.566 162.818 192.391 156.124 188.897 149.698C184.444 141.508 179.309 133.686 173.486 126.426C170.789 123.063 167.959 119.819 164.969 116.722C172.924 121.178 179.915 127.216 185.36 134.49ZM228.133 147.684C229.96 163.089 232.003 178.451 233.438 193.917C233.646 196.158 233.833 198.404 234.018 200.648C234.1 201.624 234.205 202.608 234.297 203.593C233.187 200.653 232.352 197.572 231.56 194.543C230.551 190.681 229.721 186.765 229.052 182.817C227.715 174.916 227.169 166.892 227.35 158.814C227.429 155.276 227.689 151.743 227.976 148.21C228.031 148.036 228.08 147.86 228.133 147.684ZM228.365 197.064C226.999 193.129 226.063 188.992 225.43 184.85C224.17 176.607 224.115 168.1 225.376 159.739C225.744 157.295 226.242 154.869 226.829 152.462C226.381 158.1 226.41 163.779 226.735 169.354C227.208 177.47 228.287 185.512 230.167 193.362C231.211 197.721 232.67 201.931 233.849 206.243C231.198 203.847 229.537 200.444 228.365 197.064ZM235.438 204.111C235.335 203.034 235.256 201.953 235.142 200.889C234.935 198.929 234.722 196.969 234.507 195.011C234.074 191.094 233.652 187.175 233.231 183.258C232.383 175.367 231.468 167.488 230.48 159.62C230.049 156.186 229.579 152.757 229.08 149.335C233.057 161.314 235.378 173.888 235.891 186.642C236.126 192.45 235.956 198.287 235.438 204.111ZM232.262 151.64C233.515 153.433 234.636 155.308 235.684 157.232C237.795 161.102 239.341 165.309 240.365 169.63C242.292 177.76 242.235 186.374 240.294 194.671C239.618 197.561 238.656 200.318 237.562 203.041C238.437 191.706 237.924 180.352 236.01 169.261C234.906 162.867 233.358 156.586 231.38 150.459C231.674 150.854 231.98 151.237 232.262 151.64ZM266.956 266.593C266.467 264.934 266.588 263.048 266.524 261.317C266.378 257.391 266.298 253.461 266.247 249.527C266.144 241.501 266.139 233.468 265.98 225.446C265.737 213.189 265.084 200.905 263.05 188.89C263.196 189.061 263.335 189.241 263.479 189.414C264.722 193.817 265.98 198.189 266.919 202.691C267.992 207.833 268.879 213.028 269.555 218.254C270.886 228.55 271.414 239.013 271.068 249.464C270.871 255.44 270.398 261.42 269.62 267.375C269.602 267.511 269.618 267.631 269.655 267.737C269.64 267.755 269.629 267.773 269.614 267.789C268.315 269.245 267.333 267.876 266.956 266.593ZM274.234 258.21C273.613 259.83 272.934 261.429 272.199 263.005C271.972 263.491 271.73 263.968 271.494 264.448C272.465 254.901 272.818 245.331 272.405 235.803C271.949 225.244 270.585 214.741 268.303 204.5C267.668 201.657 266.951 198.833 266.21 196.02C265.782 194.397 265.357 192.774 264.899 191.161C270.16 197.916 274.092 205.709 276.452 214.009C276.141 216.302 276.028 218.635 275.888 220.918C275.702 223.962 275.602 227.009 275.581 230.053C275.538 236.228 275.768 242.437 276.401 248.553C276.44 248.932 276.727 249.109 277.028 249.127C276.293 252.202 275.371 255.243 274.234 258.21ZM277.574 246.498C277.06 241.056 276.739 235.608 276.756 230.108C276.764 227.066 276.855 224.021 277.027 220.977C277.095 219.761 277.2 218.543 277.302 217.326C278.064 220.634 278.584 224.008 278.835 227.418C279.301 233.761 278.841 240.186 277.574 246.498ZM319.443 250.608C315.599 240.711 313.304 230.158 312.696 219.433C312.415 214.483 312.523 209.502 312.965 204.532C315.28 223.627 320.768 242.192 328.892 259.384C330.043 261.82 331.244 264.231 332.496 266.613C333.654 268.813 334.742 271.17 336.126 273.252C327.536 269.041 322.746 259.113 319.443 250.608ZM337.962 274.043C337.978 274.027 337.987 274.007 338.002 273.989C337.999 274.011 337.995 274.033 337.991 274.055C337.982 274.051 337.972 274.046 337.962 274.043ZM338.404 271.508C338.333 272.11 338.219 272.709 338.113 273.306C338.108 273.291 338.111 273.28 338.104 273.267C337.041 271.018 335.594 268.952 334.395 266.774C333.227 264.654 332.109 262.505 331.031 260.334C328.858 255.957 326.869 251.485 325.059 246.935C321.428 237.807 318.556 228.374 316.386 218.74C315.411 214.408 314.59 210.031 313.903 205.629C314.313 206.239 314.719 206.853 315.144 207.452C315.707 210.093 316.487 212.698 317.276 215.249C318.41 218.924 319.688 222.552 321.132 226.105C324.023 233.223 327.5 240.074 331.494 246.605C333.514 249.907 335.694 253.102 337.983 256.217C338.784 261.248 339.022 266.373 338.404 271.508ZM334.325 242.007C335.541 245.532 336.591 249.158 337.366 252.85C329.449 241.71 323.226 229.393 318.881 216.337C318.177 214.221 317.573 212.071 316.964 209.922C318.34 211.725 319.787 213.477 321.294 215.171C326.671 223.536 331.063 232.559 334.325 242.007ZM348.295 233.677C346.546 232.766 344.837 231.784 343.155 230.763C343.482 230.853 343.808 230.942 344.129 231.041C345.687 231.517 347.234 232.024 348.771 232.556C351.73 233.582 354.646 234.72 357.515 235.953C361.261 237.562 364.921 239.351 368.508 241.267C361.468 239.541 354.676 236.998 348.295 233.677ZM373.452 242.35C372.757 242.221 372.068 242.068 371.377 241.923C366.999 239.365 362.471 237.061 357.8 235.034C354.937 233.791 352.024 232.65 349.08 231.593C347.608 231.066 346.125 230.562 344.633 230.084C343.168 229.616 341.665 229.032 340.14 228.768C340.097 228.761 340.059 228.768 340.02 228.772C335.499 225.766 331.252 222.368 327.355 218.61C340.485 222.802 353.025 228.484 364.696 235.622C367.011 237.037 369.286 238.511 371.549 240.006C372.194 240.778 372.834 241.555 373.452 242.35ZM337.738 220.996C333.884 219.468 329.97 218.086 326.003 216.848C325.848 216.8 325.712 216.813 325.589 216.847C325.403 216.656 325.209 216.475 325.025 216.283C324.327 215.557 323.656 214.807 322.984 214.058C320.898 210.852 318.659 207.747 316.296 204.744C328.59 212.595 341.397 219.773 354.399 226.455C356.861 227.72 359.34 228.949 361.829 230.163C362.444 230.696 363.063 231.223 363.664 231.771C365.543 233.482 367.338 235.281 369.051 237.15C359.295 230.648 348.675 225.336 337.738 220.996ZM339.055 214.732C346.121 218.566 352.924 222.895 359.155 227.927C348.076 222.319 337.208 216.34 326.674 209.815C324.342 208.371 322.029 206.899 319.72 205.421C321.673 206.274 323.628 207.126 325.553 208.022C330.114 210.146 334.64 212.337 339.055 214.732ZM415.977 251.996C409.949 243.905 404.57 235.325 399.896 226.36C397.577 221.91 395.446 217.358 393.465 212.738C393.577 212.736 393.689 212.733 393.803 212.73C393.674 212.763 393.555 212.878 393.615 213.015C397.483 221.639 402.141 229.844 407.187 237.803C412.212 245.73 417.775 253.311 423.773 260.516C425.417 262.488 427.088 264.434 428.795 266.351C429.665 267.329 430.544 268.301 431.431 269.265C431.499 269.337 431.565 269.414 431.632 269.487C429.28 267.88 427.273 265.778 425.385 263.628C422.096 259.879 418.958 255.995 415.977 251.996ZM434.412 270.37C433.923 269.767 433.353 269.225 432.818 268.66C431.993 267.79 431.176 266.912 430.365 266.028C428.782 264.304 427.228 262.552 425.701 260.776C422.68 257.259 419.773 253.643 416.978 249.943C411.357 242.501 406.155 234.731 401.512 226.626C398.911 222.088 396.425 217.461 394.029 212.806C394.005 212.759 393.964 212.74 393.921 212.728C393.928 212.727 393.934 212.729 393.941 212.728C395.177 213.678 396.399 214.648 397.604 215.641C398.43 217.431 399.46 219.136 400.429 220.848C401.443 222.635 402.483 224.409 403.54 226.17C405.681 229.742 407.899 233.264 410.214 236.723C414.838 243.64 419.774 250.345 425.003 256.809C426.433 258.575 427.878 260.328 429.346 262.062C430.099 262.95 430.857 263.833 431.619 264.713C432.311 265.509 432.972 266.416 433.828 267.045C434.063 268.141 434.26 269.249 434.412 270.37ZM428.056 251.881C430.144 255.731 431.892 259.8 433.089 264.04C432.365 263.224 431.646 262.403 430.932 261.578C429.625 260.069 428.333 258.547 427.063 257.006C424.453 253.84 421.915 250.615 419.449 247.335C414.518 240.775 409.884 233.988 405.529 227.025C404.294 225.05 403.084 223.058 401.897 221.051C401.227 219.915 400.586 218.751 399.928 217.601C400.909 218.447 401.881 219.304 402.834 220.18C412.743 229.304 421.609 239.997 428.056 251.881ZM445.144 224.069C444.348 224.666 443.247 224.678 442.319 224.696C440.413 224.736 438.505 224.682 436.61 224.569C429.114 224.129 421.717 222.802 414.664 220.473C410.726 219.172 406.879 217.621 403.183 215.782C401.97 215.178 400.773 214.54 399.587 213.886C404.827 215.119 410.054 216.4 415.301 217.607C421.625 219.064 427.975 220.427 434.348 221.696C437.987 222.421 441.642 223.236 445.339 223.688C445.435 223.699 445.509 223.671 445.571 223.629C445.46 223.784 445.323 223.935 445.144 224.069ZM445.605 223.592L445.607 223.591L445.605 223.592ZM445.697 223.37C445.699 223.239 445.642 223.108 445.474 223.066C442.302 222.287 439.046 221.758 435.838 221.116C432.624 220.474 429.416 219.808 426.216 219.119C419.863 217.751 413.543 216.287 407.259 214.673C404.766 214.033 402.268 213.389 399.782 212.712C411.463 212.945 423 214.718 434.003 218.296C437.789 219.528 441.515 220.935 445.154 222.513C445.379 222.611 445.552 222.428 445.572 222.239C445.831 222.605 445.864 222.997 445.697 223.37ZM435.403 217.174C437.113 217.848 438.799 218.575 440.46 219.354C441.289 219.742 442.113 220.146 442.93 220.563C443.697 220.954 444.589 221.324 445.255 221.886C432.396 215.922 418.218 212.417 403.856 211.513C401.215 211.346 398.564 211.297 395.911 211.309C409.445 210.341 423.013 212.29 435.403 217.174ZM480.879 205.148C477.66 204.717 474.419 204.417 471.216 203.878C467.456 203.246 463.719 202.463 460.054 201.471C452.699 199.482 445.399 196.954 438.606 193.606C436.948 192.788 435.33 191.911 433.708 191.035C435.33 191.503 436.955 191.968 438.58 192.431C442.162 193.454 445.744 194.474 449.322 195.508C456.427 197.56 463.527 199.621 470.625 201.696C473.646 202.578 476.672 203.459 479.712 204.283C480.1 204.571 480.496 204.849 480.879 205.148ZM461.291 207.137C453.225 204.907 446.319 200.023 439.522 195.468C439.304 195.322 439.082 195.184 438.863 195.039C441.694 196.298 444.547 197.507 447.464 198.576C454.61 201.194 462.036 203.138 469.593 204.442C473.149 205.057 476.81 205.637 480.463 205.803C474.503 208.846 467.488 208.849 461.291 207.137ZM437.897 190.499C448.263 191.246 458.556 193.294 467.96 197.44C471.464 198.985 474.802 200.838 477.936 202.986C472.564 201.305 467.123 199.797 461.727 198.2C454.632 196.1 447.549 193.96 440.468 191.82C438.874 191.338 437.279 190.855 435.685 190.373C436.422 190.413 437.161 190.445 437.897 190.499ZM456.166 150.202C449.153 155.97 441.574 160.933 433.983 165.878C434.211 165.456 434.452 165.043 434.686 164.625C435.944 163.826 437.15 162.903 438.35 162.055C439.998 160.888 441.639 159.71 443.277 158.528C446.502 156.198 449.611 153.695 452.683 151.167C458.846 146.093 464.616 140.624 470.136 134.86C471.563 133.371 472.968 131.856 474.349 130.322C469.564 137.902 463.125 144.478 456.166 150.202ZM478.272 123.013C478.177 123.227 478.074 123.436 477.976 123.648C477.943 123.679 477.906 123.695 477.874 123.732C467.812 136.005 456.523 147.277 443.871 156.922C442.124 158.253 440.383 159.586 438.583 160.841C438.177 161.123 437.764 161.398 437.348 161.671C447.351 150.798 457.932 140.462 469.091 130.757C470.864 129.216 472.648 127.691 474.447 126.179C475.682 125.142 477.069 124.144 478.272 123.013ZM467.787 129.011C469.831 127.652 471.931 126.382 474.066 125.179C472.518 126.471 470.981 127.775 469.451 129.09C466.344 131.763 463.274 134.482 460.247 137.245C454.086 142.866 448.072 148.644 442.249 154.61C440.899 155.993 439.56 157.386 438.224 158.782C445.903 147.023 456.05 136.812 467.787 129.011ZM372.574 167.799C369.967 166.692 367.477 165.369 365.056 163.932C376.536 166.624 388.214 168.636 400.003 169.88C402.827 170.178 405.659 170.406 408.496 170.601C396.429 173.495 383.72 172.534 372.574 167.799ZM368.256 163.631C379.153 163.536 389.953 164.697 400.392 167.496C403.091 168.219 405.743 169.07 408.392 169.936C396.109 168.825 383.928 167.112 371.944 164.478C370.712 164.207 369.484 163.917 368.256 163.631ZM372.798 161.125C376.194 160.891 379.595 160.917 382.962 161.206C389.701 161.783 396.308 163.355 402.479 165.904C405.318 167.076 408.065 168.451 410.677 170.039C410.665 170.042 410.654 170.044 410.643 170.047C404.796 167.65 398.536 166.023 392.308 164.781C385.706 163.463 378.993 162.481 372.21 162.196C369.729 162.092 367.238 162.108 364.746 162.174C365.733 162.012 366.72 161.815 367.711 161.671C369.404 161.424 371.1 161.243 372.798 161.125ZM378.752 146.906C379.714 144.438 380.64 141.96 381.702 139.525C383.005 136.541 384.423 133.601 385.953 130.717C388.624 125.687 391.692 120.893 394.909 116.181C392.839 125.597 388.379 134.514 382.495 142.314C381.303 143.895 380.05 145.424 378.752 146.906ZM395.604 112.476C395.502 113.156 395.352 113.827 395.224 114.502C391.401 119.412 388.108 124.732 385.198 130.194C383.638 133.122 382.191 136.108 380.867 139.141C379.575 142.1 378.301 145.113 377.381 148.194C377.357 148.277 377.368 148.346 377.393 148.412C375.94 149.994 374.433 151.518 372.873 152.989C373.154 152.275 373.41 151.548 373.692 150.894C374.394 149.275 375.112 147.663 375.846 146.055C377.314 142.843 378.845 139.657 380.44 136.501C383.633 130.181 386.992 123.968 390.684 117.904C392.417 115.057 394.225 112.253 395.965 109.412C395.892 110.437 395.755 111.467 395.604 112.476ZM396.011 108.069C391.963 113.532 388.515 119.492 385.18 125.376C381.682 131.551 378.359 137.777 375.356 144.191C374.514 145.991 373.69 147.798 372.889 149.614C372.488 150.522 372.091 151.432 371.7 152.345C371.345 153.175 370.908 154.016 370.775 154.907C368.754 156.699 366.663 158.418 364.501 160.046C364.223 160.108 363.945 160.173 363.671 160.248C367.366 153.087 370.991 145.904 374.989 138.89C378.996 131.861 383.33 124.988 387.802 118.231C390.347 114.388 392.984 110.605 395.463 106.72C395.519 106.631 395.486 106.551 395.43 106.49C395.811 106.767 395.967 107.467 396.011 108.069ZM388.347 113.869C389.382 112.582 390.425 111.301 391.467 110.022C392.006 109.361 392.548 108.7 393.089 108.039C393.497 107.544 393.899 106.983 394.431 106.61C394.812 106.342 395.099 106.318 395.324 106.421C395.242 106.395 395.151 106.397 395.087 106.479C390.066 112.817 385.697 119.693 381.402 126.515C377.055 133.421 372.858 140.438 368.885 147.551C367.541 149.956 366.212 152.379 364.912 154.812C367.365 146.103 371.465 137.818 376.418 130.123C380.055 124.479 384.134 119.113 388.347 113.869ZM295.469 150.778C290.234 150.534 285.028 150.007 279.87 149.233C282.798 149.354 285.73 149.352 288.616 149.305C297.039 149.167 305.473 148.676 313.897 148.365C318.876 148.182 323.856 147.962 328.837 147.758C328.973 147.753 329.037 147.668 329.07 147.574C329.538 147.939 330.003 148.307 330.465 148.68C318.844 150.463 307.114 151.322 295.469 150.778ZM326.036 145.308C326.906 145.904 327.741 146.545 328.572 147.188C319.961 147.382 311.346 147.628 302.736 147.796C294.766 147.95 286.749 148.367 278.817 147.849C276.873 147.723 274.956 147.504 273.052 147.231C284.162 146.268 294.967 142.188 305.988 140.21C307.876 139.872 309.771 139.592 311.674 139.403C312.251 139.345 312.841 139.311 313.435 139.278C315.543 139.916 317.601 140.702 319.586 141.634C321.83 142.685 323.999 143.913 326.036 145.308ZM293.573 137.74C299.266 136.941 305.029 137.235 310.522 138.51C309.446 138.629 308.37 138.767 307.298 138.933C304.033 139.443 300.794 140.149 297.572 140.918C291.007 142.483 284.451 144.23 277.782 145.165C274.643 145.605 271.486 145.845 268.342 145.779C276.803 143.265 284.792 138.974 293.573 137.74ZM242.948 106.637C237.835 106.974 232.714 107.108 227.602 107.224C226.896 107.24 226.189 107.244 225.483 107.25C225.976 107.143 226.47 107.053 226.962 106.94C238.248 106.561 249.605 105.356 260.779 103.387C263.017 102.992 265.25 102.554 267.478 102.085C264.317 103.172 261.104 104.086 257.847 104.746C252.923 105.743 247.928 106.307 242.948 106.637ZM240.82 99.6972C247.628 97.8812 254.781 97.4177 261.639 98.372C263.507 98.6308 265.362 98.9892 267.183 99.4408C268.093 99.6666 268.997 99.9152 269.895 100.179C270.438 100.339 270.977 100.534 271.525 100.597C271.393 100.649 271.259 100.695 271.125 100.748C271.064 100.677 270.982 100.628 270.868 100.65C258.61 103.081 246.366 104.895 233.957 105.539C233.761 105.55 233.566 105.553 233.369 105.562C236.034 105.058 238.705 104.598 241.38 104.174C247.348 103.227 253.337 102.443 259.335 101.819C262.769 101.462 266.206 101.142 269.643 100.853C269.989 100.825 269.965 100.304 269.621 100.324C257.433 100.984 245.299 102.633 233.219 104.728C231.136 105.089 229.021 105.406 226.924 105.788C226.84 105.79 226.757 105.79 226.674 105.794C228.028 104.941 229.41 104.139 230.858 103.426C234.053 101.858 237.398 100.611 240.82 99.6972ZM241.768 52.4686C231.922 50.0772 221.799 48.7991 211.583 48.4453C201.24 48.0868 190.763 48.8277 180.474 50.6445C177.88 51.1022 175.297 51.6412 172.725 52.232C179.732 49.2311 187.101 47.1526 194.579 46.0682C204.896 44.572 215.499 44.8221 225.523 47.0242C231.06 48.2401 236.268 50.1577 241.474 52.2433C241.574 52.3159 241.67 52.3922 241.768 52.4686ZM239.134 52.6205C237.352 52.5362 235.545 52.5957 233.767 52.5847C231.272 52.5712 228.776 52.5704 226.282 52.5748C221.289 52.5848 216.298 52.6192 211.304 52.6803C201.366 52.7999 191.439 52.8212 181.498 53.092C179.11 53.1565 176.72 53.2466 174.332 53.3201C180.873 51.8187 187.497 50.7535 194.135 50.1044C204.414 49.099 214.776 49.1544 224.939 50.3036C229.714 50.844 234.451 51.6315 239.134 52.6205ZM219.937 55.3731C212.238 55.6752 204.555 55.5009 196.883 55.2706C190.826 55.0886 184.77 54.8759 178.708 54.7424C193.898 54.0067 209.092 53.4534 224.269 53.2943C226.991 53.2658 229.711 53.2501 232.435 53.2295C235.246 53.2077 238.122 53.3763 240.931 53.0671C240.965 53.0636 240.99 53.0442 241.012 53.0247C241.253 53.0783 241.494 53.1292 241.735 53.1802C234.466 54.1154 227.247 55.0876 219.937 55.3731ZM242.182 53.1253C242.25 53.0541 242.279 52.9632 242.278 52.8631C242.371 52.9354 242.463 53.0051 242.555 53.0773C242.431 53.092 242.307 53.1081 242.182 53.1253ZM177.631 47.7108C183.132 45.3107 188.867 43.3921 194.715 42.2279C205.759 40.0293 217.206 40.4328 227.558 44.283C231.72 45.8312 235.509 47.9612 239.071 50.464C235.423 48.8781 231.544 47.697 227.69 46.739C222.602 45.4747 217.331 44.6213 212.055 44.291C201.535 43.6331 190.809 44.828 180.544 47.8632C175.914 49.2316 171.403 51.0225 167.034 53.1304C167.879 52.6375 168.721 52.1379 169.581 51.6675C172.205 50.2287 174.891 48.9056 177.631 47.7108ZM123.064 22.6342C121.603 21.7735 120.173 20.8642 118.754 19.9439C118.79 19.9571 118.827 19.9691 118.862 19.9836C120.614 20.6616 122.364 21.3471 124.109 22.0402C127.652 23.448 131.185 24.8785 134.706 26.3353C141.746 29.2515 148.693 32.3583 155.592 35.5655C157.491 36.4492 159.386 37.3416 161.274 38.244C161.842 38.5155 162.41 38.7945 162.979 39.0737C148.916 35.4663 135.457 29.9374 123.064 22.6342ZM135.738 22.3868C143.667 25.2879 151.03 29.4208 158.039 33.9876C161.03 35.9354 163.952 37.9813 166.862 40.0446C166.849 40.0401 166.835 40.0382 166.821 40.0337C165.517 39.233 164.123 38.5678 162.746 37.8944C161.013 37.0467 159.278 36.2079 157.537 35.3765C154.057 33.7125 150.557 32.0898 147.04 30.4972C140.061 27.3338 133.055 24.2191 125.966 21.2878C123.977 20.4654 121.982 19.653 119.986 18.8494C119.863 18.8014 119.739 18.7443 119.617 18.6937C125.14 19.2549 130.532 20.482 135.738 22.3868ZM161.542 10.7171C150.031 14.0546 138.204 15.7318 126.422 15.6591C126.735 15.6223 127.051 15.5935 127.36 15.5553C130.513 15.1608 133.652 14.6079 136.769 13.9373C142.978 12.6026 149.097 10.8174 155.158 8.84342C167.43 4.84483 179.485 0.0729281 191.925 -3.32783C195.437 -4.28787 198.976 -5.1274 202.547 -5.77688C204.3 -6.09672 206.061 -6.3751 207.825 -6.60593C209.579 -6.83469 211.345 -6.95251 213.094 -7.21994C213.113 -7.19599 213.135 -7.17828 213.154 -7.15434C195.644 -2.19136 179.02 5.65 161.542 10.7171ZM211.832 -8.32154C212.104 -8.15492 212.362 -7.97492 212.593 -7.76534C209.655 -7.73923 206.631 -7.22208 203.73 -6.73763C200.675 -6.22702 197.635 -5.58615 194.613 -4.87137C188.363 -3.39237 182.202 -1.50774 176.083 0.498113C163.85 4.51139 151.728 9.07234 139.19 11.9029C136.551 12.4983 133.893 12.9786 131.227 13.3881C133.55 12.7254 135.867 12.0393 138.173 11.3156C144.584 9.30533 150.905 6.98565 157.112 4.36312C169.124 -0.709611 180.977 -7.25194 193.92 -9.18632C200.021 -10.0989 205.978 -9.72668 211.832 -8.32154ZM188.474 -10.9457C192.794 -11.3384 197.133 -11.3365 201.405 -10.84C201.963 -10.7755 202.517 -10.6818 203.071 -10.6008C200.934 -10.667 198.779 -10.5685 196.66 -10.3645C190.625 -9.78611 184.686 -8.17591 178.933 -6.12989C172.475 -3.83197 166.246 -0.883374 159.941 1.81927C153.639 4.52203 147.227 6.94396 140.722 9.05244C137.081 10.2322 133.412 11.2914 129.717 12.2506C128.832 12.48 127.944 12.6837 127.058 12.9028C131.762 10.9375 136.286 8.4315 140.769 6.02882C155.722 -1.97887 171.587 -9.41306 188.474 -10.9457ZM87.933 37.6367C87.9657 37.451 88.001 37.2653 88.0364 37.0797C88.0651 37.2683 88.0808 37.4589 88.1084 37.6462C88.0506 37.6306 87.9919 37.6253 87.933 37.6367ZM71.5105 87.89C77.6842 75.0074 82.5177 61.5108 85.8271 47.7432C86.5107 44.8981 87.1004 42.0384 87.6496 39.1716C87.6112 52.5669 84.3021 66.0408 77.7667 78.0832C75.9178 81.4884 73.8259 84.7669 71.5105 87.89ZM79.2717 78.0468C83.8602 69.164 86.8346 59.5135 87.9282 49.7189C88.303 46.363 88.4447 43.0078 88.3596 39.6575C89.7179 52.7984 86.3853 66.497 79.2717 78.0468ZM96.9928 67.5976C95.2509 61.0802 93.7736 54.4854 92.2777 47.8974C95.4785 54.5968 98.6274 61.3157 101.316 68.2632C104.382 76.1877 106.978 84.3097 109.171 92.5475C110.211 96.4593 111.132 100.406 111.984 104.372C104.952 93.1476 100.432 80.4648 96.9928 67.5976ZM113.603 106.868C113.746 106.71 113.832 106.502 113.781 106.253C110.233 89.3237 104.782 72.8754 97.7671 57.1981C97.0781 55.659 96.3713 54.1305 95.6485 52.609C103.458 64.5818 109.043 78.1043 111.994 92.2121C112.932 96.6924 113.607 101.257 114.1 105.828C113.998 106.276 113.917 106.726 113.802 107.174C113.734 107.073 113.67 106.969 113.603 106.868ZM115.272 94.3195C115.356 97.3966 115.111 100.478 114.578 103.525C113.166 87.0835 107.83 71.0587 99.7377 56.9987C97.3823 52.9065 94.7664 48.9727 91.937 45.2034C103.88 59.0873 114.757 75.1201 115.272 94.3195ZM72.5866 67.3423C74.0887 63.0744 75.9687 58.9075 78.1788 54.9277C80.2449 51.2068 82.5711 47.6237 84.5491 43.8551C85.2938 42.4378 86.0341 40.9023 86.6782 39.3213C83.6992 52.9684 79.4381 66.3569 73.8451 79.291C72.1014 83.3206 70.2513 87.3043 68.2674 91.2329C68.2391 91.2881 68.2369 91.3393 68.2228 91.3938C68.2116 91.4035 68.2001 91.4158 68.1889 91.4255C68.3699 83.2905 69.845 75.1311 72.5866 67.3423Z" fill="#5F5C7C"/>
</svg>
